<?xml version="1.0" encoding="UTF-8"?>
<svg id="Capa_2" data-name="Capa 2" xmlns="http://www.w3.org/2000/svg" viewBox="0 0 148.41 60.89">
  <defs>
    <style>
      .cls-1 {
        fill: #2e3e5c;
        stroke-width: 0px;
      }
    </style>
  </defs>
  <g id="Capa_1-2" data-name="Capa 1">
    <g>
      <path class="cls-1" d="M5.6,14.87c4.66-6.73,16.42-4.91,19.23.91.65-.79,1.19-1.65,1.94-2.33,1.7-1.54,3.71-2.4,5.96-2.7,2.75-.36,5.49-.3,8.11.69,4.38,1.67,6.67,5.01,7.4,9.54.19,1.16.23,2.34.23,3.51,0,6.01-.02,12.02.02,18.03,0,.8-.24.98-.98.95-1.4-.06-2.81-.06-4.21,0-.72.03-.93-.16-.93-.91.03-5.78.02-11.56.02-17.35,0-1.15-.1-2.28-.37-3.4-1.14-4.76-4.53-6.19-8.66-5.62-3.52.49-5.52,2.79-5.9,6.52-.13,1.23-.19,2.47-.19,3.71-.02,5.39-.02,10.78,0,16.17,0,.67-.14.9-.85.87-1.44-.06-2.88-.06-4.31,0-.73.03-.93-.17-.92-.92.03-6.08.01-12.15.02-18.23,0-1.18-.11-2.35-.49-3.47-1.21-3.57-4.38-5.35-8.31-4.68-3.49.59-5.57,2.73-6.12,6.29-.14.94-.22,1.88-.22,2.83.01,5.75,0,11.5.02,17.25,0,.7-.11.97-.89.94-1.5-.07-3.01-.04-4.51,0C.16,43.49,0,43.34,0,42.77c.02-10.22.02-20.45,0-30.67,0-.55.13-.72.7-.7,1.4.04,2.81.04,4.21,0,.57-.02.73.16.71.71-.04.86-.01,1.72-.01,2.76Z"/>
      <path class="cls-1" d="M83.84,33.36c-.91,2.57-2.24,4.76-4.19,6.49-4.84,4.27-10.45,5.66-16.54,3.43-6.17-2.25-9.77-6.93-10.74-13.42-1.35-9,4.05-16.95,12.66-18.94,9.3-2.14,18.7,4.57,19.73,14.07.15,1.4.11,2.8.05,4.2-.03.73-.27.89-.98.89-7.84-.03-15.68-.02-23.52-.02-2.3,0-2.33.01-1.37,2.14,1.68,3.7,4.54,5.98,8.58,6.42,4.25.47,7.64-1.16,10-4.8.16-.24.27-.48.65-.47,1.85.02,3.7.01,5.67.01ZM68.55,25.36c3.17,0,6.33-.01,9.5.01.63,0,.82-.09.69-.8-.87-4.76-5.2-8.44-10-8.46-5.17-.02-9.55,3.52-10.45,8.39-.13.71.05.88.75.87,3.17-.04,6.33-.02,9.5-.02Z"/>
      <path class="cls-1" d="M105.79,22.09c0-6.83.01-13.66-.02-20.48,0-.76.18-1.01.97-.97,1.34.07,2.68.07,4.02,0,.86-.04,1.15.16,1.14,1.1-.05,5-.02,10-.02,15,0,8.56-.01,17.12.02,25.68,0,.85-.18,1.14-1.07,1.08-1.3-.09-2.62-.07-3.92,0-.87.05-1.15-.17-1.14-1.1.04-6.76.02-13.53.02-20.29Z"/>
      <path class="cls-1" d="M94.13,14.36c1.99-2.57,4.51-3.57,7.43-3.78.7-.05.88.15.86.84-.05,1.5-.06,3.01,0,4.51.03.67-.21.86-.84.95-2.21.32-4.27.97-5.57,3.01-1.03,1.62-1.43,3.44-1.44,5.31-.05,5.75-.05,11.5-.03,17.25,0,.79-.14,1.08-.99,1.03-1.37-.08-2.75-.07-4.12,0-.76.03-.98-.17-.98-.96.03-6.37.02-12.74.02-19.11,0-3.69.03-7.38-.02-11.08-.01-.8.24-.97.98-.94,1.34.06,2.68.04,4.02,0,.57-.02.73.17.69.71-.05.67-.01,1.34-.01,2.25Z"/>
      <path class="cls-1" d="M144.56,32.14c0,3.94-.02,7.21.02,10.47,0,.68-.17.9-.86.87-1.44-.05-2.88-.07-4.31,0-.82.04-.94-.27-.94-1,.03-5.75.01-11.5.02-17.24,0-1.45-.18-2.86-.63-4.24-.99-2.99-3.37-4.77-6.5-4.89-1.58-.06-3.14.07-4.57.82-.51.27-.6.12-.6-.38.02-1.5.02-3,0-4.51,0-.43.12-.66.53-.79,6.58-2.12,16.35.38,17.62,10.21.49,3.77.09,7.57.23,10.67Z"/>
      <path class="cls-1" d="M121.75,27.49c0,5-.02,9.99.02,14.99,0,.83-.23,1.05-1.03,1.01-1.3-.07-2.61-.04-3.92,0-.51.01-.74-.08-.74-.68.02-10.25.02-20.51,0-30.76,0-.54.18-.64.67-.63,1.4.03,2.81.04,4.21,0,.65-.02.81.18.81.81-.03,5.09-.01,10.19-.01,15.28Z"/>
      <path class="cls-1" d="M81.82,55.08c0-1.5-.01-3,0-4.5,0-.34-.2-.91.41-.92.54,0,1.27-.37,1.58.32.33.74.64.54,1.1.21,1.36-.99,2.89-.94,4.41-.55,1.32.34,2.21,1.52,2.24,3,.06,2.45.02,4.89.04,7.34,0,.45-.14.68-.62.65-.19-.01-.39,0-.59,0q-1.28,0-1.29-1.25c0-1.86.01-3.72,0-5.58-.01-1.42-.5-2.11-1.53-2.25-1.61-.21-2.57.32-3.03,1.66-.25.73-.25,1.48-.26,2.22-.01,1.47-.02,2.94,0,4.4.01.58-.17.87-.78.8-.06,0-.13,0-.2,0q-1.49.02-1.5-1.44c0-1.37,0-2.74,0-4.11Z"/>
      <path class="cls-1" d="M112.55,55.16c0,1.53,0,3.07,0,4.6,0,.32.15.84-.39.83-.56-.02-1.34.43-1.64-.37-.29-.74-.52-.59-1.02-.22-1.47,1.09-3.13,1.07-4.76.52-1.26-.43-1.9-1.52-1.94-2.81-.08-2.48-.03-4.96-.04-7.44,0-.45.15-.67.62-.65.29.02.59.03.88,0,.79-.11,1.01.25,1,1-.04,1.92-.02,3.85,0,5.77.01,1.51.48,2.18,1.56,2.31,1.67.21,2.69-.41,3.06-1.87.35-1.38.16-2.79.2-4.19.02-.59,0-1.17,0-1.76,0-1.26,0-1.19,1.28-1.29,1.02-.07,1.29.28,1.24,1.26-.08,1.43-.02,2.87-.02,4.31Z"/>
      <path class="cls-1" d="M75.65,55.73c-.98,0-1.96.02-2.94,0-.64-.02-.79.28-.69.85.25,1.45,1.3,2.34,2.89,2.43.96.05,1.87-.22,2.79-.42.3-.07.76-.62.96.03.17.56.33,1.23-.35,1.66-.48.31-1.05.39-1.59.45-1.69.18-3.4.31-4.94-.64-1.92-1.17-2.8-3.7-2.26-6.42.62-3.12,2.84-4.68,5.98-4.2,2.22.34,3.7,2.13,3.73,4.58.02,2.05.16,1.64-1.63,1.68-.65.01-1.31,0-1.96,0h0ZM74.37,53.93c.59,0,1.17-.03,1.76,0,.75.05.8-.32.65-.91-.31-1.19-1.21-1.85-2.45-1.79-1.14.06-2.07.92-2.28,2.06-.09.51.12.64.57.63.59-.01,1.17,0,1.76,0Z"/>
      <path class="cls-1" d="M130.11,55.73c-.98,0-1.96.01-2.94,0-.59-.01-.73.28-.65.81.21,1.44,1.28,2.37,2.86,2.47.96.06,1.87-.22,2.8-.41.31-.06.77-.63.95,0,.17.57.42,1.32-.4,1.72-.29.14-.61.22-.93.3-1.09.29-2.21.26-3.31.18-2.43-.18-4.21-1.96-4.52-4.52-.11-.94-.09-1.88.1-2.83.74-3.51,3.65-4.67,6.72-3.78,2.13.62,3.58,3.57,2.94,5.68-.12.41-.41.36-.69.37-.98,0-1.96,0-2.94,0h0ZM128.9,53.93h0c.62,0,1.24-.02,1.86,0,.57.02.65-.26.57-.74-.2-1.24-1.22-2.03-2.51-1.96-1.17.07-2.2,1.07-2.28,2.18-.03.42.16.51.51.51.62,0,1.24,0,1.86,0Z"/>
      <path class="cls-1" d="M138.43,60.87c-.45-.06-.97-.09-1.48-.19-1.46-.29-1.52-.42-1.47-1.87.02-.6.23-.65.7-.46,1.07.43,2.19.65,3.35.58.72-.05,1.43-.23,1.62-1.01.19-.79-.45-1.16-1.06-1.45-1.03-.49-2.09-.92-3.11-1.44-1.13-.58-1.63-1.55-1.55-2.82.08-1.32.85-2.11,2.03-2.49,1.77-.58,3.54-.41,5.29.15.68.22.64.61.38,1.13-.24.47-.27,1.14-1.12.79-.91-.38-1.88-.56-2.88-.46-.5.05-1.01.17-1.16.74-.16.62.23,1.01.72,1.25,1,.48,2.04.87,3.04,1.36,1.49.72,2.08,1.75,1.91,3.19-.17,1.46-1.05,2.4-2.63,2.78-.83.2-1.67.27-2.6.22Z"/>
      <path class="cls-1" d="M62.86,60.61c-1,.27-1.4-.21-1.72-1.09-1.07-2.97-2.21-5.92-3.36-8.87-.3-.77-.28-1.09.68-1.04,1.78.09,1.44-.25,2.03,1.43.68,1.94,1.35,3.88,2.03,5.81.08.24.08.59.39.61.34.01.31-.37.39-.59.77-2.18,1.52-4.37,2.29-6.55.2-.57,2.23-1.03,2.63-.6.16.17.04.37-.02.55-1.25,3.29-2.51,6.58-3.76,9.87-.33.86-1.06.37-1.58.49Z"/>
      <path class="cls-1" d="M94.96,54.92c0-.85-.02-1.7,0-2.54.02-.61-.11-1.03-.85-.97-.3.03-.6,0-.66-.41-.05-.35-.01-.72.35-.83,1.25-.38,1.62-1.4,1.89-2.5.18-.75.75-.58,1.25-.58.62,0,.5.48.51.84.06,1.69.06,1.66,1.76,1.72.52.02,1.38-.46,1.41.74.01.81-.23,1.06-1.05,1.05-2.11-.03-2.11,0-2.11,2.11,0,1.04,0,2.09,0,3.13,0,1.76.41,2.14,2.15,2.03,1.07-.06,1.23.12,1.12,1.19-.05.47-.28.68-.72.78-.94.21-1.88.25-2.81.04-1.43-.33-2.16-1.38-2.23-3.16-.03-.88,0-1.76,0-2.64h0Z"/>
      <path class="cls-1" d="M115.74,55.1c0-1.53,0-3.07,0-4.6,0-.37-.12-.9.49-.84.54.05,1.34-.43,1.54.52.2.94.54.78,1.07.25.84-.85,1.9-1.06,3.06-1,.52.03.65.24.65.73,0,1.41-.08,1.51-1.47,1.56-1.68.07-2.81,1.25-2.87,3.1-.05,1.63-.05,3.27,0,4.9.02.75-.23.96-.96.93-1.76-.06-1.5.13-1.52-1.53-.02-1.34,0-2.68,0-4.02Z"/>
      <path class="cls-1" d="M118.92.63c.69,0,1.37.02,2.06,0,.58-.03.82.18.81.78-.03,1.4-.03,2.81,0,4.21.01.57-.23.73-.76.72-1.4-.02-2.81-.02-4.21,0-.54,0-.76-.18-.75-.73.03-1.44.02-2.87,0-4.31,0-.51.21-.69.7-.68.72.02,1.44,0,2.15,0Z"/>
      <path class="cls-1" d="M140.8,3.81c0-2.12,1.64-3.8,3.75-3.81,2.15-.01,3.87,1.69,3.87,3.82,0,2.06-1.73,3.76-3.83,3.77-2.11,0-3.78-1.66-3.79-3.78ZM146.57,6.1c-.7.02-1.25.02-1.53-.71-.14-.37-.27-1.07-.76-.97-.4.09-.15.73-.17,1.13-.02.35-.1.52-.5.54-.5.02-.51-.26-.5-.61,0-.82,0-1.63,0-2.45,0-1.69.12-1.79,1.83-1.49.03,0,.06.02.1.02,1.02.22,1.54,1.33.85,2.07-.48.52-.29.8-.02,1.22.26.4.49.81.74,1.22,1.36-1.3,1.46-3.1.29-4.38-1.16-1.27-3.02-1.41-4.31-.3-1.3,1.11-1.48,2.94-.46,4.31.97,1.3,3.19,1.67,4.45.39ZM144.08,2.94c.11.2-.19.67.41.62.37-.03.6-.21.62-.59.03-.46-.25-.62-.65-.66-.52-.05-.32.35-.39.63Z"/>
    </g>
  </g>
</svg>