<?xml version="1.0" encoding="UTF-8"?>
<svg id="Capa_2" data-name="Capa 2" xmlns="http://www.w3.org/2000/svg" viewBox="0 0 187.04 35.96">
  <defs>
    <style>
      .cls-1 {
        fill: #2e3e5c;
        stroke-width: 0px;
      }
    </style>
  </defs>
  <g id="Capa_1-2" data-name="Capa 1">
    <g>
      <path class="cls-1" d="M66.79,18.14c0-3.74-.02-7.47,0-11.21.02-4.25,2.36-6.61,6.61-6.66,2.24-.02,4.48-.06,6.72.01,3.94.12,6.25,2.52,6.26,6.46.01,7.47,0,14.95,0,22.42,0,3.94-2.03,6.35-5.95,6.64-2.71.2-5.45.24-8.16-.07-3.42-.4-5.45-2.7-5.47-6.12-.02-3.82,0-7.65,0-11.47ZM79.59,18c0-3.08,0-6.16,0-9.23,0-1.81-.27-2.07-2.04-2.09-4.22-.05-3.83-.03-3.83,3.77,0,5.76.01,11.52,0,17.28,0,.81.09,1.54,1.09,1.64,1.05.11,2.09.2,3.16.12,1.23-.09,1.66-.67,1.64-1.86-.05-3.21-.02-6.42-.01-9.63Z"/>
      <path class="cls-1" d="M.03,17.97C.03,12.56.05,7.15,0,1.74,0,.67.29.23,1.4.25c4.09.04,8.18-.02,12.27.04,3.17.05,5.5,2.3,5.67,5.46.18,3.29.14,6.6,0,9.89-.1,2.3-1.24,3.94-3.36,4.84-.49.21-.56.26-.37.88,1.28,4.22,2.44,8.48,3.62,12.73.39,1.41.12,1.77-1.32,1.78-1.14,0-2.29-.07-3.43.01-1.11.08-1.55-.44-1.8-1.43-1.05-4.12-2.15-8.23-3.25-12.35-.21-.78-2.03-1.37-2.65-.86-.32.26-.16.66-.16.99-.01,3.91,0,7.83-.01,11.74,0,1.68-.2,1.88-1.9,1.89-1.14,0-2.29-.01-3.43-.02-.92,0-1.29-.4-1.28-1.39.04-5.5.02-11,.02-16.49h0ZM6.63,10.7h-.02c0,1.1,0,2.19,0,3.29,0,.47.02.85.68.83,1.36-.04,2.72.02,4.07-.04.8-.04,1.43-.39,1.43-1.35,0-1.8.03-3.59,0-5.39-.01-.96-.54-1.41-1.52-1.39-1.27.03-2.54.05-3.81-.02-.74-.04-.87.28-.85.92.04,1.05.01,2.1.01,3.15Z"/>
      <path class="cls-1" d="M54.01.3c1.23,0,2.47-.07,3.69.02,2.86.21,4.92,2.19,5.23,5.02.27,2.45.09,4.92.07,7.38,0,.67-.41.98-1.03.88-1.6-.28-3.19-.61-4.78-.94-.58-.12-.73-.55-.73-1.09,0-1.1-.01-2.2,0-3.3,0-1.08-.49-1.59-1.59-1.63-3.26-.13-3.37-.04-3.37,3.16,0,.57,0,1.14,0,1.72,0,3.18,0,3.17,3.12,4.13,2.26.7,4.51,1.46,6.77,2.14,1.12.34,1.68.99,1.67,2.19-.03,3.3.05,6.6-.03,9.9-.08,3.44-1.98,5.6-5.33,5.9-2.53.23-5.1.26-7.64-.03-3.07-.35-4.98-2.48-5.11-5.57-.07-1.71,0-3.43-.01-5.15,0-.89.38-1.33,1.3-1.14,1.46.3,2.92.63,4.38.93.68.14.97.54.92,1.21-.01.18,0,.35,0,.53.01,3.13.62,3.62,3.79,3.07.73-.13,1.11-.55,1.13-1.24.04-1.63.02-3.25.04-4.88.01-.7-.54-.71-.98-.85-2.92-.94-5.84-1.9-8.78-2.79-1.25-.38-1.88-.99-1.84-2.42.09-3.6.02-7.21.04-10.82.02-4.01,2.31-6.3,6.29-6.36.92-.01,1.85,0,2.77,0,0,.01,0,.02,0,.04Z"/>
      <path class="cls-1" d="M130.6,18.14c0-5.37,0-10.73,0-16.1,0-1.71.06-1.76,1.81-1.76,5.28,0,10.56,0,15.84,0,1.5,0,1.71.27,1.41,1.71-.23,1.12-.5,2.23-.7,3.35-.17.98-.63,1.41-1.68,1.39-3.03-.06-6.07,0-9.11-.04-.83-.01-1.15.18-1.12,1.08.06,2.02.06,4.05,0,6.07-.03.86.29,1.02,1.06,1.01,2.15-.05,4.31.02,6.47-.04,1.16-.03,1.58.44,1.53,1.57-.06,1.14-.08,2.29,0,3.43.08,1.14-.45,1.48-1.47,1.47-2.2-.03-4.4,0-6.6-.05-.74-.02-1,.16-.98.93.04,2.07.05,4.14,0,6.2-.03.87.23,1.12,1.1,1.11,3.03-.05,6.07.02,9.11-.04,1.05-.02,1.53.38,1.7,1.36.22,1.25.5,2.49.76,3.74.19.88-.1,1.37-1.05,1.37-5.59,0-11.17,0-16.76,0-1.17,0-1.33-.68-1.32-1.64.02-5.37.01-10.73.01-16.1Z"/>
      <path class="cls-1" d="M23.21,17.99c0-5.41.02-10.82-.02-16.23-.01-1.17.42-1.53,1.55-1.52,5.02.04,10.03.04,15.05,0,1.06,0,1.55.31,1.49,1.43-.07,1.18-.07,2.38,0,3.56.06,1.1-.41,1.49-1.47,1.47-2.99-.04-5.98.04-8.97-.04-1.03-.03-1.25.3-1.21,1.26.08,1.98.06,3.96,0,5.94-.02.77.24.96.97.95,2.24-.04,4.49,0,6.73-.03.95-.02,1.37.34,1.34,1.31-.04,1.27-.04,2.55,0,3.83.03.97-.37,1.34-1.33,1.33-2.24-.04-4.49.01-6.73-.05-.74-.02-1,.16-.99.93.04,2.11.05,4.22,0,6.33-.02.77.24.95.97.95,2.99-.04,5.98.03,8.97-.04,1.15-.03,1.7.36,1.86,1.5.15,1.13.44,2.24.66,3.36.26,1.36.06,1.6-1.37,1.62-1.23.02-2.46,0-3.7,0-4.05,0-8.1-.03-12.14.02-1.24.02-1.7-.37-1.68-1.67.06-5.41.03-10.82.03-16.23Z"/>
      <path class="cls-1" d="M116.14,22.22c1.35-6.75,2.74-13.5,4.03-20.26.25-1.3.78-1.83,2.1-1.71,1,.09,2.02.01,3.03.02,1.49,0,1.77.36,1.44,1.85-.7,3.21-1.42,6.42-2.14,9.63-1.65,7.41-3.3,14.81-4.95,22.22-.39,1.76-.53,1.88-2.39,1.88-1.01,0-2.03-.05-3.03,0-1.07.05-1.55-.37-1.78-1.44-2.06-9.43-4.16-18.85-6.25-28.27-.31-1.41-.64-2.82-.94-4.24-.26-1.22.06-1.64,1.28-1.67,1.14-.03,2.29.05,3.43-.03,1.17-.09,1.66.43,1.86,1.52.73,3.93,1.52,7.84,2.29,11.76.52,2.67,1.05,5.34,1.58,8.01.05.24.14.47.21.71.07,0,.15,0,.22,0Z"/>
      <path class="cls-1" d="M90.34,17.86c0-5.37.02-10.73-.02-16.1,0-1.07.3-1.55,1.42-1.5,1.18.05,2.38.05,3.56-.02,1.18-.06,1.66.38,1.64,1.59-.05,3.08,0,6.16,0,9.24,0,5.63.03,11.26-.06,16.89-.02,1.27.39,1.51,1.54,1.47,2.37-.08,4.75,0,7.13-.04.91-.02,1.36.31,1.51,1.24.2,1.26.47,2.5.78,3.74.3,1.18-.25,1.5-1.3,1.49-2.86-.02-5.72,0-8.58,0-1.94,0-3.87,0-5.81,0-1.7,0-1.81-.12-1.81-1.77,0-5.41,0-10.82,0-16.23Z"/>
      <path class="cls-1" d="M166.55,17.01c4.4,0,8.8-.01,13.2,0,.79,0,1.39-.03,1.3-1.09-.05-.66.32-1.07,1.04-1.06,1.28,0,2.55,0,3.83,0,.75,0,1.13.35,1.11,1.14-.02,1.23-.03,2.46,0,3.7.01.92-.44,1.24-1.31,1.2-.97-.04-1.94-.05-2.9,0-1.12.06-1.93-.12-1.83-1.52.05-.66-.46-.63-.91-.63-1.58,0-3.17,0-4.75,0-7.26,0-14.52,0-21.78,0-.39,0-.8.01-1.18-.05-.4-.07-.59-.41-.61-.77-.02-.36.15-.72.56-.79.43-.08.87-.12,1.3-.12,4.31,0,8.62,0,12.94,0ZM185.38,17.92c.23-1.07-.15-1.49-1.3-1.47-1.01.02-1.38.25-1.38,1.33,0,1.1.22,1.56,1.45,1.53,1.08-.03,1.45-.36,1.23-1.38Z"/>
      <path class="cls-1" d="M161.83,21.42c1.94,0,3.87.04,5.8-.02.83-.02,1.43.17,1.91.87.4.58.89,1.09,1.34,1.63.64.76,2.31,1.19,3.2.87.41-.15.37-.45.35-.74-.06-1.18.56-1.52,1.64-1.45,1.05.06,2.11.06,3.16.03.93-.02,1.23.42,1.19,1.3-.05,1.14-.05,2.29,0,3.43.05.95-.38,1.24-1.26,1.22-1.14-.03-2.29-.03-3.43.02-.91.04-1.35-.35-1.28-1.23.07-.79-.28-1.05-.98-.91-2.11.41-3.52-.56-4.54-2.28-.56-.95-1.35-1.16-2.42-1.14-3.56.08-7.12.06-10.69.07-.63,0-1.5.15-1.47-.82.03-.94.9-.79,1.53-.79,1.98-.02,3.96,0,5.94,0,0-.01,0-.03,0-.04ZM177.36,26.91c.94.15,1.67.09,1.48-1.19-.11-.71.29-1.65-1.08-1.47-.84.11-1.87-.29-1.68,1.28.11.9.01,1.72,1.28,1.37Z"/>
      <path class="cls-1" d="M161.23,12.97c1.93,0,3.87-.03,5.8.01.68.01,1.19-.14,1.55-.74.16-.26.42-.46.58-.72.94-1.61,2.3-2.3,4.16-1.96.91.17,1.24-.21,1.15-1.13-.08-.82.39-1.18,1.21-1.16,1.19.03,2.37.02,3.56,0,.82-.01,1.21.31,1.19,1.18-.04,1.19-.04,2.37,0,3.56.02.82-.31,1.22-1.16,1.21-1.23-.02-2.46-.02-3.69,0-.63.01-.97-.25-1.1-.87-.09-.41.22-1.15-.53-1.13-.88.03-1.85-.37-2.65.35-.1.09-.18.2-.24.31-1.3,2.28-3.22,2.93-5.81,2.73-3.28-.24-6.59-.06-9.89-.06-.61,0-1.34.11-1.37-.79-.03-.95.73-.81,1.33-.82,1.98,0,3.96,0,5.94,0v.02ZM178.79,10.42c.16-.96.08-1.6-1.18-1.49-.94.08-1.7-.03-1.52,1.34.11.83-.03,1.57,1.21,1.38.82-.12,1.93.28,1.5-1.23Z"/>
      <path class="cls-1" d="M168.64.02c3.16.04,3.08-.57,3.06,3.02-.02,3.35.23,3.02-2.97,2.99-1.16-.01-2.15.12-2.9,1.13-.31.42-.85.67-1.12,1.1-1.56,2.48-3.96,2.57-6.48,2.34-.55-.05-1.14-.08-1.15-.78-.01-.72.53-.94,1.17-.96.04,0,.09-.01.13,0,3.19.76,4.9-1.39,6.7-3.38.44-.48.67-1.01.61-1.67-.05-.52-.02-1.06-.02-1.58q-.01-2.2,2.19-2.2c.26,0,.53,0,.79,0ZM168.76,1.67c-1.13-.27-1.52.13-1.52,1.33,0,1.17.43,1.34,1.44,1.34,1.02,0,1.5-.16,1.44-1.34-.05-1-.14-1.66-1.36-1.33Z"/>
      <path class="cls-1" d="M171.72,32.99c-.06,3.04.59,2.97-2.99,2.94-3.13-.03-3.13.43-3.03-3.06.04-1.29-.24-2.31-1.3-3.09-.21-.15-.41-.34-.56-.55-1.26-1.79-2.96-2.47-5.11-2.14-.34.05-.71,0-1.04-.08-.44-.1-.65-.44-.6-.89.04-.39.27-.69.67-.69,1.49-.02,2.98-.02,4.47.04.25,0,.52.3.74.5.39.36.78.72,1.1,1.13,1.64,2.04,3.55,3.41,6.38,2.83.89-.18,1.28.36,1.27,1.22,0,.61,0,1.23,0,1.84ZM168.63,34.3c1.01.2,1.62,0,1.49-1.23-.09-.81.18-1.67-1.21-1.56-1.03.08-1.76.06-1.66,1.46.07,1.03.21,1.64,1.38,1.34Z"/>
    </g>
  </g>
</svg>