<?xml version="1.0" encoding="UTF-8"?>
<svg xmlns="http://www.w3.org/2000/svg" xmlns:xlink="http://www.w3.org/1999/xlink" viewBox="0 0 711.82 409.33">
  <defs>
    <style>
      .cls-1 {
        fill: url(#linear-gradient-38);
      }

      .cls-1, .cls-2, .cls-3, .cls-4, .cls-5, .cls-6, .cls-7, .cls-8, .cls-9, .cls-10, .cls-11, .cls-12, .cls-13, .cls-14, .cls-15, .cls-16, .cls-17, .cls-18, .cls-19, .cls-20, .cls-21, .cls-22, .cls-23, .cls-24, .cls-25, .cls-26, .cls-27, .cls-28, .cls-29, .cls-30, .cls-31, .cls-32, .cls-33, .cls-34, .cls-35, .cls-36, .cls-37, .cls-38, .cls-39, .cls-40, .cls-41, .cls-42, .cls-43, .cls-44, .cls-45, .cls-46, .cls-47, .cls-48, .cls-49, .cls-50, .cls-51, .cls-52 {
        stroke-width: 0px;
      }

      .cls-2 {
        fill: url(#linear-gradient-12);
      }

      .cls-3 {
        fill: url(#linear-gradient-17);
      }

      .cls-4 {
        fill: url(#linear-gradient-19);
      }

      .cls-5 {
        fill: url(#linear-gradient-33);
      }

      .cls-6 {
        fill: url(#linear-gradient);
      }

      .cls-7 {
        fill: #57bd9e;
      }

      .cls-8 {
        fill: #ffb25e;
      }

      .cls-53 {
        stroke-dasharray: 0 0 5.61 5.61;
      }

      .cls-53, .cls-54, .cls-55 {
        fill: none;
        stroke: #37528d;
        stroke-linecap: round;
        stroke-linejoin: round;
        stroke-width: 2.15px;
      }

      .cls-9 {
        fill: url(#linear-gradient-21);
      }

      .cls-10 {
        fill: url(#linear-gradient-6);
      }

      .cls-11 {
        fill: #ff8400;
      }

      .cls-12 {
        fill: #16367b;
      }

      .cls-56 {
        isolation: isolate;
      }

      .cls-13 {
        fill: #ffad54;
      }

      .cls-14 {
        fill: #e6e6e6;
        mix-blend-mode: multiply;
        opacity: .5;
      }

      .cls-57 {
        letter-spacing: -.08em;
      }

      .cls-15 {
        fill: url(#linear-gradient-15);
      }

      .cls-16 {
        fill: url(#linear-gradient-11);
      }

      .cls-17 {
        fill: url(#linear-gradient-5);
      }

      .cls-18 {
        fill: url(#linear-gradient-31);
      }

      .cls-19 {
        fill: url(#linear-gradient-34);
      }

      .cls-20 {
        fill: url(#linear-gradient-40);
      }

      .cls-21 {
        fill: url(#linear-gradient-13);
      }

      .cls-22 {
        fill: url(#linear-gradient-23);
      }

      .cls-23 {
        fill: url(#linear-gradient-25);
      }

      .cls-58, .cls-26 {
        fill: #fff;
      }

      .cls-58, .cls-59 {
        font-family: Raleway-Bold, Raleway;
        font-size: 265.15px;
        font-weight: 700;
      }

      .cls-24 {
        fill: url(#linear-gradient-16);
      }

      .cls-25 {
        fill: url(#linear-gradient-22);
      }

      .cls-27 {
        fill: url(#linear-gradient-35);
      }

      .cls-28 {
        fill: url(#linear-gradient-32);
      }

      .cls-29 {
        fill: url(#linear-gradient-20);
      }

      .cls-30 {
        fill: url(#linear-gradient-14);
      }

      .cls-31 {
        fill: url(#linear-gradient-2);
      }

      .cls-32 {
        fill: #3b5690;
      }

      .cls-33 {
        fill: #37528d;
      }

      .cls-34 {
        fill: url(#linear-gradient-7);
      }

      .cls-35 {
        fill: url(#linear-gradient-39);
      }

      .cls-36 {
        fill: url(#linear-gradient-3);
      }

      .cls-37 {
        fill: #ffd09e;
      }

      .cls-38, .cls-59 {
        fill: #657aa8;
      }

      .cls-39 {
        fill: url(#linear-gradient-9);
      }

      .cls-40 {
        fill: url(#linear-gradient-27);
      }

      .cls-41 {
        fill: #9dcdf4;
      }

      .cls-42 {
        fill: url(#linear-gradient-36);
      }

      .cls-43 {
        fill: url(#linear-gradient-8);
      }

      .cls-44 {
        fill: url(#linear-gradient-24);
      }

      .cls-45 {
        fill: url(#linear-gradient-26);
      }

      .cls-46 {
        fill: url(#linear-gradient-18);
      }

      .cls-47 {
        fill: url(#linear-gradient-30);
      }

      .cls-48 {
        fill: url(#linear-gradient-29);
      }

      .cls-49 {
        fill: url(#linear-gradient-28);
      }

      .cls-50 {
        fill: url(#linear-gradient-10);
      }

      .cls-51 {
        fill: url(#linear-gradient-4);
      }

      .cls-52 {
        fill: url(#linear-gradient-37);
      }

      .cls-60 {
        letter-spacing: -.03em;
      }

      .cls-55 {
        stroke-dasharray: 0 0 5.61 5.61;
      }
    </style>
    <linearGradient id="linear-gradient" x1="157.61" y1="150.6" x2="143.46" y2="198.99" gradientTransform="translate(-40.57 126.46) rotate(-2.36)" gradientUnits="userSpaceOnUse">
      <stop offset="0" stop-color="#ff8400"/>
      <stop offset=".21" stop-color="#ff8e15"/>
      <stop offset=".46" stop-color="#ff9728"/>
      <stop offset=".72" stop-color="#ff9d34"/>
      <stop offset="1" stop-color="#ff9f38"/>
    </linearGradient>
    <linearGradient id="linear-gradient-2" x1="167.53" y1="153.5" x2="153.38" y2="201.89" xlink:href="#linear-gradient"/>
    <linearGradient id="linear-gradient-3" x1="161.58" y1="131.23" x2="161.58" y2="83.02" gradientTransform="translate(-40.57 126.46) rotate(-2.36)" gradientUnits="userSpaceOnUse">
      <stop offset="0" stop-color="#16367b"/>
      <stop offset=".98" stop-color="#657aa8"/>
    </linearGradient>
    <linearGradient id="linear-gradient-4" x1="176.84" y1="131.23" x2="176.84" y2="83.02" xlink:href="#linear-gradient-3"/>
    <linearGradient id="linear-gradient-5" x1="144.96" y1="131.23" x2="144.96" y2="83.02" xlink:href="#linear-gradient-3"/>
    <linearGradient id="linear-gradient-6" x1="208.77" y1="135.04" x2="208.77" y2="91.73" gradientTransform="matrix(1,0,0,1,0,0)" xlink:href="#linear-gradient"/>
    <linearGradient id="linear-gradient-7" x1="172.48" y1="135.04" x2="172.48" y2="91.73" gradientTransform="matrix(1,0,0,1,0,0)" xlink:href="#linear-gradient"/>
    <linearGradient id="linear-gradient-8" x1="165.7" y1="151.56" x2="214.19" y2="151.56" gradientTransform="matrix(1,0,0,1,0,0)" xlink:href="#linear-gradient-3"/>
    <linearGradient id="linear-gradient-9" x1="202.2" y1="141.73" x2="201.96" y2="168.08" gradientTransform="matrix(1,0,0,1,0,0)" xlink:href="#linear-gradient-3"/>
    <linearGradient id="linear-gradient-10" x1="176.06" y1="141.52" x2="175.82" y2="167.64" gradientTransform="matrix(1,0,0,1,0,0)" xlink:href="#linear-gradient-3"/>
    <linearGradient id="linear-gradient-11" x1="189.08" y1="135.04" x2="189.08" y2="91.73" gradientTransform="matrix(1,0,0,1,0,0)" xlink:href="#linear-gradient"/>
    <linearGradient id="linear-gradient-12" x1="190.04" y1="138.08" x2="190.04" y2="125.71" gradientUnits="userSpaceOnUse">
      <stop offset="0" stop-color="#f1f1f1"/>
      <stop offset="1" stop-color="#fff"/>
    </linearGradient>
    <linearGradient id="linear-gradient-13" x1="352.26" y1="343.19" x2="347.22" y2="299.6" gradientTransform="matrix(1,0,0,1,0,0)" xlink:href="#linear-gradient"/>
    <linearGradient id="linear-gradient-14" x1="387.87" y1="337.69" x2="428.67" y2="337.69" gradientTransform="matrix(1,0,0,1,0,0)" xlink:href="#linear-gradient-3"/>
    <linearGradient id="linear-gradient-15" x1="374.48" y1="340.61" x2="369.43" y2="297.03" gradientTransform="matrix(1,0,0,1,0,0)" xlink:href="#linear-gradient"/>
    <linearGradient id="linear-gradient-16" x1="426.01" y1="356.75" x2="358.75" y2="346.66" gradientTransform="matrix(1,0,0,1,0,0)" xlink:href="#linear-gradient-3"/>
    <linearGradient id="linear-gradient-17" x1="417.79" y1="377.79" x2="407.77" y2="316.32" gradientTransform="matrix(1,0,0,1,0,0)" xlink:href="#linear-gradient-3"/>
    <linearGradient id="linear-gradient-18" x1="395.53" y1="338.18" x2="390.49" y2="294.59" gradientTransform="matrix(1,0,0,1,0,0)" xlink:href="#linear-gradient"/>
    <linearGradient id="linear-gradient-19" x1="550.42" y1="255.5" x2="550.42" y2="227.2" gradientTransform="matrix(1,0,0,1,0,0)" xlink:href="#linear-gradient"/>
    <linearGradient id="linear-gradient-20" x1="515.01" y1="255.5" x2="515.01" y2="227.2" gradientTransform="matrix(1,0,0,1,0,0)" xlink:href="#linear-gradient"/>
    <linearGradient id="linear-gradient-21" x1="516.84" y1="275.12" x2="548.4" y2="275.12" gradientTransform="matrix(1,0,0,1,0,0)" xlink:href="#linear-gradient-3"/>
    <linearGradient id="linear-gradient-22" x1="531.26" y1="255.5" x2="531.26" y2="227.2" gradientTransform="matrix(1,0,0,1,0,0)" xlink:href="#linear-gradient"/>
    <linearGradient id="linear-gradient-23" x1="531.55" y1="273.71" x2="531.55" y2="241.74" xlink:href="#linear-gradient-12"/>
    <linearGradient id="linear-gradient-24" x1="544.63" y1="322.07" x2="521.5" y2="274.36" gradientTransform="matrix(1,0,0,1,0,0)" xlink:href="#linear-gradient-3"/>
    <linearGradient id="linear-gradient-25" x1="510.14" y1="318.82" x2="548.45" y2="271.84" gradientTransform="matrix(1,0,0,1,0,0)" xlink:href="#linear-gradient-3"/>
    <linearGradient id="linear-gradient-26" x1="536.44" y1="136.6" x2="482.72" y2="152.85" gradientTransform="matrix(1,0,0,1,0,0)" xlink:href="#linear-gradient"/>
    <linearGradient id="linear-gradient-27" x1="510.54" y1="169.22" x2="456.82" y2="185.47" gradientTransform="matrix(1,0,0,1,0,0)" xlink:href="#linear-gradient"/>
    <linearGradient id="linear-gradient-28" x1="546.08" y1="248.56" x2="544.23" y2="209.9" gradientTransform="matrix(1,0,0,1,0,0)" xlink:href="#linear-gradient"/>
    <linearGradient id="linear-gradient-29" x1="545.77" y1="135.06" x2="526.58" y2="101.61" gradientTransform="matrix(1,0,0,1,0,0)" xlink:href="#linear-gradient-3"/>
    <linearGradient id="linear-gradient-30" x1="570.2" y1="142.24" x2="532.8" y2="114.06" gradientTransform="matrix(1,0,0,1,0,0)" xlink:href="#linear-gradient-3"/>
    <linearGradient id="linear-gradient-31" x1="179.56" y1="52.65" x2="165.23" y2="12.59" gradientTransform="matrix(1,0,0,1,0,0)" xlink:href="#linear-gradient"/>
    <linearGradient id="linear-gradient-32" x1="184.89" y1="7.78" x2="205.99" y2="45.33" xlink:href="#linear-gradient-12"/>
    <linearGradient id="linear-gradient-33" x1="157.44" y1="37.11" x2="178.54" y2="74.67" gradientUnits="userSpaceOnUse">
      <stop offset="0" stop-color="#f1f1f1"/>
      <stop offset=".72" stop-color="#fbfbfb"/>
      <stop offset="1" stop-color="#fff"/>
    </linearGradient>
    <linearGradient id="linear-gradient-34" x1="150.25" y1="27.24" x2="171.35" y2="64.79" xlink:href="#linear-gradient-12"/>
    <linearGradient id="linear-gradient-35" x1="151.27" y1="26.67" x2="172.37" y2="64.22" xlink:href="#linear-gradient-12"/>
    <linearGradient id="linear-gradient-36" x1="1659.48" y1="-2836.86" x2="1634" y2="-2908.1" gradientTransform="translate(1504.76 3241.98) rotate(-50.29)" xlink:href="#linear-gradient"/>
    <linearGradient id="linear-gradient-37" x1="352.28" y1="174.17" x2="388.76" y2="125.17" xlink:href="#linear-gradient-12"/>
    <linearGradient id="linear-gradient-38" x1="350.33" y1="172.72" x2="386.81" y2="123.73" xlink:href="#linear-gradient-12"/>
    <linearGradient id="linear-gradient-39" x1="350.94" y1="173.17" x2="387.42" y2="124.18" xlink:href="#linear-gradient-12"/>
    <linearGradient id="linear-gradient-40" x1="320.64" y1="150.61" x2="357.12" y2="101.62" xlink:href="#linear-gradient-12"/>
  </defs>
  <g class="cls-56">
    <g id="Capa_2" data-name="Capa 2">
      <g id="Capa_1-2" data-name="Capa 1">
        <g>
          <ellipse class="cls-14" cx="366.94" cy="355.35" rx="323.05" ry="15"/>
          <g>
            <path class="cls-41" d="M711.57,276.5c-2.06-20.59-16.7-38.6-33.81-50.69-18.35-12.97-39.76-20.81-59.47-31.61-7.27-3.98-14.84-9.01-17.37-16.89-3.12-9.71,2.58-20.07,9.46-27.6,6.88-7.53,15.34-14.02,19.62-23.27,5.2-11.25,3.12-24.93-3.15-35.62-6.27-10.7-16.22-18.77-26.79-25.24-30.77-18.83-74.25-24.07-100.74.42-14.32,13.24-24.95,35.03-44.46,35.27-19.2.23-30.4-20.66-44.47-33.73-21.07-19.56-55.53-20.39-79.23-5.17-12.74,8.18-20.42,21.91-32.58,30.7-6.18,4.46-13.46,7.59-21.22,7.15-20.24-1.17-31.01-23.69-46.42-36.87-25.59-21.89-65.58-16.73-94.63.32-11.55,6.78-22.42,15.48-28.98,27.16-6.56,11.68-8.16,26.75-1.56,38.41,8.14,14.37,27.62,23.13,27.85,39.65.16,11.88-10.27,21.04-20.47,27.14-17.27,10.34-36.49,17.14-53.66,27.64-17.18,10.5-32.87,25.96-36.74,45.72-5.18,26.44,13.12,53.28,37.14,65.5,24.4,12.42,52.95,12.66,80.32,12.63,153.07-.15,306.15-.31,459.22-.46,26.06-.03,53.25-.32,76.41-12.26,20.17-10.4,36.17-31.04,35.99-53.74-.01-1.53-.1-3.04-.25-4.55Z"/>
            <g>
              <g>
                <circle class="cls-41" cx="382.25" cy="8.09" r="8.09"/>
                <circle class="cls-41" cx="378.21" cy="30.06" r="4.04"/>
                <path class="cls-41" d="M362.23,14.81c-2.43,1.4-3.26,4.5-1.86,6.93,1.4,2.43,4.5,3.26,6.93,1.86,2.43-1.4,3.26-4.5,1.86-6.93-1.4-2.43-4.5-3.26-6.93-1.86Z"/>
              </g>
              <g>
                <circle class="cls-41" cx="472.82" cy="54.8" r="11.01" transform="translate(-2.67 76.44) rotate(-9.22)"/>
                <path class="cls-41" d="M461.81,84.73c0,3.04,2.46,5.5,5.5,5.5s5.5-2.46,5.5-5.5-2.46-5.5-5.5-5.5-5.5,2.46-5.5,5.5Z"/>
                <path class="cls-41" d="M445.56,63.96c-3.3,1.91-4.44,6.13-2.53,9.44,1.91,3.3,6.13,4.44,9.44,2.53,3.3-1.91,4.44-6.13,2.53-9.44-1.91-3.3-6.13-4.44-9.44-2.53Z"/>
              </g>
              <g>
                <circle class="cls-41" cx="288.12" cy="34.11" r="11.01" transform="translate(145.64 286.85) rotate(-67.34)"/>
                <path class="cls-41" d="M277.11,64.03c0,3.04,2.46,5.5,5.5,5.5s5.5-2.46,5.5-5.5-2.46-5.5-5.5-5.5-5.5,2.46-5.5,5.5Z"/>
                <path class="cls-41" d="M260.86,43.27c-3.3,1.91-4.44,6.13-2.53,9.44,1.91,3.3,6.13,4.44,9.44,2.53,3.3-1.91,4.44-6.13,2.53-9.44-1.91-3.3-6.13-4.44-9.44-2.53Z"/>
              </g>
            </g>
          </g>
          <g>
            <g>
              <g>
                <path class="cls-38" d="M638.86,195.43c-11.66-4.44-1.15-9.63,6.17-11.7,5.92-1.67,20.75-4.41,14.73-14.51-6.3-10.59-12.34,2.49-17.36,3.97-11.21,3.3.46-10.76,3.24-14.51,3.81-5.14,11.84-15.63,1.93-17.38-8.01-1.41-16.31,9.75-19.63,15.31-2.37,3.97-8.2,22.55-14.26,18.43-4.59-3.12.16-21.72-10.8-8.42-4.46,5.41-3.74,14.09-5.75,20.28-2.94,9.06-4.18,12.81-12.22,10.49-4.17-1.2-4.3-6.43-9.44-2.9-2.65,1.82-3.43,10.19-3.41,13.1.21,26.7,10.88,44.58,15.92,46.89,6.82,3.12,19.49-1.39,25.32-4.74,2.9-1.66,8.19-4.42,7.81-8.64-.42-4.74-7.73-4.06-8-6.84-.77-7.89,13.74-.35,17.76-1.48,5.2-1.46,13.83-10.75,8.36-15.67-.56-.51-23.24-2.15-10.27-9.37,7.18-4,14.89,7.1,21.82-.78,9.97-11.34-7.55-9.85-11.92-11.52Z"/>
                <path class="cls-32" d="M636.92,199.63c-5.01-2.12-10.19-4.02-15.65-4.49,3.84-4.8,7.86-9.55,10.78-14.87.82-1.5-1.63-2.54-2.45-1.05-.36.65-.75,1.28-1.14,1.92-.42-1.63.08-4.06.24-5.36.39-3.35,1.66-6.37,2.98-9.44.68-1.58-1.77-2.63-2.45-1.05-1.71,3.99-3.06,7.8-3.36,12.16-.15,2.14-.28,4.47.97,6.24-4.13,6.12-9.27,11.76-13.57,17.7-1.84-2.92-3.19-5.95-3.81-9.4-.68-3.76-.22-7.58-.61-11.37-.18-1.71-2.82-1.38-2.64.33.47,4.55-.06,9.02,1.08,13.51.86,3.38,2.41,6.37,4.33,9.26-4.95,7.15-9.51,14.58-13.27,22.43-1.25,2.61-2.39,5.26-3.49,7.94-2.48-3.71-4.54-7.59-5.97-11.85-.8-2.37-1.68-4.89-2-7.37-.24-1.88-.04-3.66-.78-5.44-.66-1.58-3.13-.6-2.47.99.91,2.19.6,5.04,1.18,7.38.56,2.26,1.24,4.5,2.03,6.69,1.6,4.48,3.96,8.54,6.69,12.42.04.06.09.08.13.13-1.86,4.62-3.68,9.26-5.75,13.78-.16.13-.31.29-.41.54-.2.51-.59,1.21-.72,1.82-3.7,9.33-7.42,18.66-11,28.04-.61,1.6,1.84,2.65,2.45,1.05,3.57-9.35,7.28-18.64,10.96-27.94.02-.04.05-.06.08-.11,1.18-2.44,2.27-4.92,3.31-7.42,4.84,1.23,10.23-.18,14.75-2,1.59-.64.6-3.11-.99-2.47-3.93,1.58-8.48,2.81-12.72,1.97,2.33-5.72,4.52-11.51,7.18-17.08,1.06-2.22,2.19-4.39,3.37-6.54.09.06.16.13.27.18,6.61,2.68,13.73,3.75,20.8,2.64,1.69-.27,1.37-2.91-.33-2.64-6.63,1.04-13.23.06-19.43-2.45-.01,0-.02,0-.04,0,3.64-6.35,7.74-12.43,12.04-18.34.73-1.01,1.5-2,2.27-2.99.15.37.46.66.99.7,5.29.42,10.26,2.27,15.12,4.32,1.58.67,2.63-1.78,1.05-2.45Z"/>
              </g>
              <g>
                <path class="cls-12" d="M688.14,230.78c-11.77,4.58-23.82,7.34-34.84,13.76-10.59,6.18-20.88,13.19-30.52,20.76-8.88,6.98-17.39,14.39-26.32,21.33-10.41,8.11-17.75,17.95-26.65,27.49-1.43,1.53-3.94-.55-2.5-2.08,8.06-8.65,14.73-17.97,23.99-25.48,9.83-7.98,19.64-16.1,29.59-23.92,10.03-7.88,20.76-15.17,31.82-21.51,10.82-6.2,22.78-8.93,34.31-13.41,1.95-.76,3.06,2.3,1.11,3.06h0Z"/>
                <path class="cls-12" d="M686.03,229.89c2.53-1.11,6.99-.71,9.05,1.21,2.4,2.25.2,4.42-2.41,4.92-2.9.56-5.9-.54-8.71-1.09-2.92-.57-6.08.07-8.82-.88,1.68-1.31,4.88-2.11,6.92-2.63,2.17-.56,4.18-1.62,6.3-2.2"/>
                <path class="cls-12" d="M680.84,232.12c4.48-1.58,11.08-1.07,14.21-5.43,2.05-2.85,1.33-5.43-2.32-5.75-2.77-.24-5.03,1.6-6.79,3.49-2.25,2.42-4.93,5.47-6.61,8.23"/>
                <path class="cls-12" d="M668.48,234.89c1.63-5.18,3.52-11.77,8.53-14.88,3.12-1.94,3.73,1.87,2.96,4.04-1.75,4.95-6.59,9.15-10.97,11.76l-.52-.92Z"/>
                <path class="cls-12" d="M656.83,239.8c.99-6.56,2.03-14.86,7.49-19.56,3.4-2.93,4.85,1.55,4.33,4.31-1.19,6.3-6.23,12.27-11.02,16.26l-.8-1.01Z"/>
                <path class="cls-12" d="M631.99,255.41c-.17-6.63-.59-14.99,3.96-20.57,2.84-3.48,5.05.68,5.02,3.49-.07,6.41-3.99,13.17-8.02,17.93l-.96-.85Z"/>
                <path class="cls-12" d="M612.04,271.04c-2.28-7.5-5.38-16.89-1.95-24.69,2.14-4.86,5.96-.81,6.81,2.4,1.94,7.33-.41,16.26-3.5,22.95l-1.36-.67Z"/>
                <path class="cls-12" d="M640.25,249.14c2.15-7.33,4.63-16.65,11.54-21.07,4.3-2.76,5.23,2.63,4.21,5.7-2.33,7-8.96,12.95-15,16.67l-.74-1.3Z"/>
                <path class="cls-12" d="M669.47,237.62c4.57,2.93,10.24,6.78,16.09,5.96,3.64-.51,1.66-3.82-.32-5-4.52-2.67-10.92-2.8-15.96-2l.19,1.04Z"/>
                <path class="cls-12" d="M642.55,247.74c5.93,1.73,13.36,4.09,19.47,1.31,3.81-1.73.58-4.71-1.96-5.35-5.79-1.46-12.81.47-18.06,2.97l.54,1.07Z"/>
                <path class="cls-12" d="M628.98,260.81c6.36,1.85,14.33,4.38,20.88,1.4,4.08-1.86.62-5.05-2.1-5.73-6.21-1.57-13.74.51-19.36,3.18l.58,1.15Z"/>
                <path class="cls-12" d="M614.83,271.61c8.49,2.12,19.1,5.06,28.09.8,5.6-2.65,1.1-6.68-2.54-7.45-8.3-1.75-18.56,1.36-26.27,5.17l.72,1.48Z"/>
                <path class="cls-12" d="M622.46,263.28c-1.46-4.07-3.65-7.61-3.81-12.03-.13-3.84,1.54-7.34,4.01-10.19,1.09-1.26,2.24-2.93,4.06-3.15,2.56-.3,1.48,2.43,1,4.1-1.02,3.55-1.86,7.22-2.49,10.84-.35,2-.73,3.86-1.24,5.76-.34,1.25-.33,3.75-.87,4.6"/>
                <path class="cls-12" d="M631.28,276.85c-4.74.06-20.04,1.54-25.92,1.61-1.34,1.08-2.71,2.13-4.09,3.18,9.59,2.32,25.4,3.85,29.58,2.85,1.8-.43,5.55-2,6.19-3.84,1.16-3.33-3.69-3.82-5.76-3.8Z"/>
                <path class="cls-12" d="M617.63,300.26c-5.69-1.26-24.42-3.79-31.48-5.36-1.91.91-3.84,1.78-5.8,2.66,10.83,5.48,29.33,11.74,34.61,11.73,2.28,0,7.2-.83,8.49-2.86,2.33-3.66-3.34-5.61-5.83-6.17Z"/>
                <path class="cls-12" d="M597.93,283.27c-.76-2.55-7.27-10.13-4.45-24.05.4-1.98,1.12-4.57,3.22-5.33,2.92-1.06,3.14,2.21,3.22,4.29.16,4.09-.37,19.64,0,23.51"/>
                <path class="cls-12" d="M590.16,290.21c2.87.82,5.74,2.61,8.71,3.57,3.19,1.03,20.88,4.03,26.47,2.88,2.42-.5,7.15-.32,7.75-3.41.58-2.98-3.05-4.84-5.39-5.61-5.43-1.79-31.1.02-37.62,1.39"/>
                <path class="cls-12" d="M587.79,291.24c-6.72-9.54-9.39-29.3-7.75-31.31,3.56-4.35,8.04,2.43,8.93,5.72,1.99,7.39.19,24.77-1.04,25.02"/>
              </g>
              <path class="cls-32" d="M570.41,306.47c-4.43,3.63-10.12,8.23-14.73,11.59-6,4.38-6,8.69-.84,13.87,6.38,6.4,17.73,9.89,26.51,11.29,3.11.49,3.69.28,3.75-3.25.05-2.6-.3-5.02-.06-7.64.45-5.07,1.26-9.42,4.24-13.6,4.7-6.6,5.12,1.6,3.77,5.4-1.57,4.42-2.62,9.2-2.66,13.99-.07,8.22,26.79-4.1,30.73-8.81-3.07-2.34-6.67-11.99-4.28-15.78,2.1-3.33,3,.32,3.46,2.53.52,2.54.77,4.94,2.28,7.05,6.17,8.61,19.03-14.14,21.44-18.82,3.18-6.16,6.85-7.06,13.25-7.32-4.55-5.98-11.18-14.61-19.2-14.91-3.89-.15-7.2,2.61-10.25,4.63-2.1,1.39-9.02,4.88-5.32-.35,2.58-3.66,7.52-4.87,10.07-8.68-2.07-2.59-9.22-7.32-12.68-6.55-4.14.92-5.4,9.04-8.01,11.85-2.93-4.98,2.7-9.94,4.65-14.02-5.45-3.93-16.5-8.76-23.61-6.85-10.37,2.79-.71,16.21,1.25,18.44,1.44,1.64,3.73,4.61-.15,3.32-3.4-1.13-7.79-8.66-9.2-11.89-.69-1.58-.81-6.09-2.26-7.08-1.66-1.13-29.23,11.15-32.33,20.27-3.23,9.48,12.14,20.15,20.19,21.35Z"/>
            </g>
            <g>
              <g>
                <path class="cls-38" d="M57.32,195.43c11.66-4.44,1.15-9.63-6.17-11.7-5.92-1.67-20.75-4.41-14.73-14.51,6.3-10.59,12.34,2.49,17.36,3.97,11.21,3.3-.46-10.76-3.24-14.51-3.81-5.14-11.84-15.63-1.93-17.38,8.01-1.41,16.31,9.75,19.63,15.31,2.37,3.97,8.2,22.55,14.26,18.43,4.59-3.12-.16-21.72,10.8-8.42,4.46,5.41,3.74,14.09,5.75,20.28,2.94,9.06,4.18,12.81,12.22,10.49,4.17-1.2,4.3-6.43,9.44-2.9,2.65,1.82,3.43,10.19,3.41,13.1-.21,26.7-10.88,44.58-15.92,46.89-6.82,3.12-19.49-1.39-25.32-4.74-2.9-1.66-8.19-4.42-7.81-8.64.42-4.74,7.73-4.06,8-6.84.77-7.89-13.74-.35-17.76-1.48-5.2-1.46-13.83-10.75-8.37-15.67.56-.51,23.24-2.15,10.27-9.37-7.18-4-14.89,7.1-21.82-.78-9.97-11.34,7.55-9.85,11.92-11.52Z"/>
                <path class="cls-32" d="M59.26,199.63c5.01-2.12,10.19-4.02,15.65-4.49-3.84-4.8-7.86-9.55-10.78-14.87-.82-1.5,1.63-2.54,2.45-1.05.36.65.75,1.28,1.14,1.92.42-1.63-.08-4.06-.24-5.36-.39-3.35-1.66-6.37-2.98-9.44-.68-1.58,1.77-2.63,2.45-1.05,1.71,3.99,3.06,7.8,3.36,12.16.15,2.14.28,4.47-.97,6.24,4.13,6.12,9.27,11.76,13.57,17.7,1.84-2.92,3.19-5.95,3.81-9.4.68-3.76.22-7.58.61-11.37.18-1.71,2.82-1.38,2.64.33-.47,4.55.06,9.02-1.08,13.51-.86,3.38-2.41,6.37-4.33,9.26,4.95,7.15,9.51,14.58,13.27,22.43,1.25,2.61,2.39,5.26,3.49,7.94,2.48-3.71,4.54-7.59,5.97-11.85.8-2.37,1.68-4.89,2-7.37.24-1.88.04-3.66.78-5.44.66-1.58,3.13-.6,2.47.99-.91,2.19-.6,5.04-1.18,7.38-.56,2.26-1.24,4.5-2.03,6.69-1.6,4.48-3.96,8.54-6.69,12.42-.04.06-.09.08-.13.13,1.86,4.62,3.68,9.26,5.75,13.78.16.13.31.29.41.54.2.51.59,1.21.72,1.82,3.7,9.33,7.42,18.66,11,28.04.61,1.6-1.84,2.65-2.45,1.05-3.57-9.35-7.28-18.64-10.96-27.94-.02-.04-.05-.06-.08-.11-1.18-2.44-2.27-4.92-3.31-7.42-4.84,1.23-10.23-.18-14.75-2-1.59-.64-.6-3.11.99-2.47,3.93,1.58,8.48,2.81,12.72,1.97-2.33-5.72-4.52-11.51-7.18-17.08-1.06-2.22-2.19-4.39-3.37-6.54-.09.06-.16.13-.27.18-6.61,2.68-13.73,3.75-20.8,2.64-1.69-.27-1.37-2.91.33-2.64,6.63,1.04,13.23.06,19.43-2.45.01,0,.02,0,.04,0-3.64-6.35-7.74-12.43-12.04-18.34-.73-1.01-1.5-2-2.27-2.99-.15.37-.46.66-.99.7-5.29.42-10.26,2.27-15.12,4.32-1.58.67-2.63-1.78-1.05-2.45Z"/>
              </g>
              <g>
                <path class="cls-12" d="M8.04,230.78c11.77,4.58,23.82,7.34,34.84,13.76,10.59,6.18,20.88,13.19,30.52,20.76,8.88,6.98,17.39,14.39,26.31,21.33,10.41,8.11,17.75,17.95,26.65,27.49,1.43,1.53,3.94-.55,2.5-2.08-8.06-8.65-14.73-17.97-23.99-25.48-9.83-7.98-19.64-16.1-29.59-23.92-10.03-7.88-20.76-15.17-31.82-21.51-10.82-6.2-22.78-8.93-34.31-13.41-1.95-.76-3.06,2.3-1.11,3.06h0Z"/>
                <path class="cls-12" d="M10.15,229.89c-2.53-1.11-6.99-.71-9.05,1.21-2.4,2.25-.2,4.42,2.41,4.92,2.9.56,5.9-.54,8.71-1.09,2.92-.57,6.08.07,8.82-.88-1.68-1.31-4.88-2.11-6.92-2.63-2.17-.56-4.18-1.62-6.3-2.2"/>
                <path class="cls-12" d="M15.34,232.12c-4.48-1.58-11.08-1.07-14.21-5.43-2.05-2.85-1.33-5.43,2.32-5.75,2.77-.24,5.03,1.6,6.79,3.49,2.25,2.42,4.93,5.47,6.61,8.23"/>
                <path class="cls-12" d="M27.71,234.89c-1.63-5.18-3.52-11.77-8.53-14.88-3.12-1.94-3.73,1.87-2.96,4.04,1.75,4.95,6.59,9.15,10.97,11.76l.52-.92Z"/>
                <path class="cls-12" d="M39.36,239.8c-.99-6.56-2.03-14.86-7.49-19.56-3.4-2.93-4.85,1.55-4.33,4.31,1.19,6.3,6.23,12.27,11.02,16.26l.8-1.01Z"/>
                <path class="cls-12" d="M64.2,255.41c.17-6.63.59-14.99-3.96-20.57-2.84-3.48-5.05.68-5.02,3.49.07,6.41,3.99,13.17,8.02,17.93l.96-.85Z"/>
                <path class="cls-12" d="M84.15,271.04c2.28-7.5,5.38-16.89,1.95-24.69-2.14-4.86-5.96-.81-6.81,2.4-1.94,7.33.41,16.26,3.5,22.95l1.36-.67Z"/>
                <path class="cls-12" d="M55.93,249.14c-2.15-7.33-4.63-16.65-11.54-21.07-4.3-2.76-5.23,2.63-4.21,5.7,2.33,7,8.96,12.95,15,16.67l.74-1.3Z"/>
                <path class="cls-12" d="M26.72,237.62c-4.57,2.93-10.24,6.78-16.09,5.96-3.64-.51-1.66-3.82.32-5,4.52-2.67,10.92-2.8,15.96-2l-.19,1.04Z"/>
                <path class="cls-12" d="M53.63,247.74c-5.93,1.73-13.36,4.09-19.47,1.31-3.81-1.73-.58-4.71,1.96-5.35,5.79-1.46,12.81.47,18.06,2.97l-.54,1.07Z"/>
                <path class="cls-12" d="M67.2,260.81c-6.36,1.85-14.33,4.38-20.88,1.4-4.08-1.86-.62-5.05,2.1-5.73,6.21-1.57,13.74.51,19.36,3.18l-.58,1.15Z"/>
                <path class="cls-12" d="M81.35,271.61c-8.49,2.12-19.1,5.06-28.09.8-5.6-2.65-1.1-6.68,2.54-7.45,8.3-1.75,18.56,1.36,26.27,5.17l-.72,1.48Z"/>
                <path class="cls-12" d="M73.72,263.28c1.46-4.07,3.65-7.61,3.81-12.03.13-3.84-1.54-7.34-4.01-10.19-1.09-1.26-2.24-2.93-4.06-3.15-2.56-.3-1.48,2.43-1,4.1,1.02,3.55,1.86,7.22,2.49,10.84.35,2,.73,3.86,1.24,5.76.34,1.25.33,3.75.87,4.6"/>
                <path class="cls-12" d="M64.9,276.85c4.74.06,20.04,1.54,25.92,1.61,1.34,1.08,2.71,2.13,4.09,3.18-9.59,2.32-25.4,3.85-29.58,2.85-1.8-.43-5.55-2-6.19-3.84-1.16-3.33,3.69-3.82,5.76-3.8Z"/>
                <path class="cls-12" d="M78.55,300.26c5.69-1.26,24.42-3.79,31.48-5.36,1.91.91,3.84,1.78,5.8,2.66-10.83,5.48-29.33,11.74-34.61,11.73-2.28,0-7.2-.83-8.49-2.86-2.33-3.66,3.34-5.61,5.83-6.17Z"/>
                <path class="cls-12" d="M98.25,283.27c.76-2.55,7.27-10.13,4.45-24.05-.4-1.98-1.12-4.57-3.22-5.33-2.92-1.06-3.14,2.21-3.22,4.29-.16,4.09.37,19.64,0,23.51"/>
                <path class="cls-12" d="M106.02,290.21c-2.87.82-5.74,2.61-8.71,3.57-3.19,1.03-20.88,4.03-26.47,2.88-2.42-.5-7.15-.32-7.75-3.41-.58-2.98,3.05-4.84,5.39-5.61,5.43-1.79,31.1.02,37.62,1.39"/>
                <path class="cls-12" d="M108.39,291.24c6.72-9.54,9.39-29.3,7.75-31.31-3.56-4.35-8.04,2.43-8.93,5.72-1.99,7.39-.19,24.77,1.04,25.02"/>
              </g>
              <path class="cls-32" d="M125.77,306.47c4.43,3.63,10.12,8.23,14.73,11.59,6,4.38,6,8.69.84,13.87-6.38,6.4-17.73,9.89-26.51,11.29-3.11.49-3.69.28-3.75-3.25-.05-2.6.3-5.02.06-7.64-.45-5.07-1.26-9.42-4.24-13.6-4.7-6.6-5.12,1.6-3.77,5.4,1.57,4.42,2.62,9.2,2.66,13.99.07,8.22-26.79-4.1-30.73-8.81,3.07-2.34,6.67-11.99,4.28-15.78-2.1-3.33-3,.32-3.46,2.53-.52,2.54-.77,4.94-2.28,7.05-6.17,8.61-19.03-14.14-21.44-18.82-3.18-6.16-6.85-7.06-13.25-7.32,4.55-5.98,11.18-14.61,19.2-14.91,3.89-.15,7.2,2.61,10.25,4.63,2.1,1.39,9.02,4.88,5.32-.35-2.58-3.66-7.52-4.87-10.07-8.68,2.07-2.59,9.22-7.32,12.68-6.55,4.14.92,5.4,9.04,8.01,11.85,2.93-4.98-2.7-9.94-4.65-14.02,5.45-3.93,16.5-8.76,23.61-6.85,10.37,2.79.71,16.21-1.25,18.44-1.44,1.64-3.73,4.61.15,3.32,3.4-1.13,7.79-8.66,9.2-11.89.69-1.58.81-6.09,2.26-7.08,1.66-1.13,29.23,11.15,32.33,20.27,3.23,9.48-12.14,20.15-20.19,21.35Z"/>
            </g>
          </g>
          <g>
            <text class="cls-59" transform="translate(97.16 348.61)"><tspan class="cls-57" x="0" y="0">F</tspan><tspan class="cls-60" x="131.52" y="0">A</tspan><tspan x="302.81" y="0">Q</tspan></text>
            <text class="cls-58" transform="translate(87.02 348.61)"><tspan class="cls-57" x="0" y="0">F</tspan><tspan class="cls-60" x="131.52" y="0">A</tspan><tspan x="302.81" y="0">Q</tspan></text>
          </g>
          <g>
            <g>
              <path class="cls-11" d="M142.75,314.03c.07-.09.14-.17.2-.26,1.17-1.65,1.35-3.82.45-5.66-.4-.81-.43-1.75-.09-2.59l.12-.28c.88-2.14-.68-2.85-2.97-3.24,0,0-2.94-1.9-3.08-2.15l-1.42,3.52c.07.22,2.53.99,2.66,1.11l2.28,9.15c.21.85,1.3,1.09,1.85.41Z"/>
              <path class="cls-6" d="M110.71,250.32l-11.9,26.82c-1.57,3.53-1.82,6.94-.69,9.54,3.03,7,39.57,17.31,39.57,17.31l.08-3.83-25.13-19.74,16.79-27.28-18.71-2.82Z"/>
            </g>
            <g>
              <path class="cls-11" d="M127.45,348.2l-.3-.02c-.89-.07-1.78.25-2.43.88-1.47,1.43-5.02,1.12-6.96.51-.1-.03-.2-.07-.3-.11-.82-.31-.93-1.42-.19-1.89l7.42-5.02s0-.16-.01-.35l4.05.43c.1.48.17.81.17.81.34,2.29.86,4.94-1.45,4.75Z"/>
              <path class="cls-31" d="M140.14,255.65c-8.23,23.55-11.58,53.08-11.35,86.99h-.05s-4.05-.44-4.05-.44l-.14-.02c-7-24.55-8.49-50.04-2.45-76.93l3.74-12.19,14.31,2.59Z"/>
            </g>
            <g>
              <path class="cls-36" d="M109.29,253.53l30.86,2.54.03-1.27c.09-4.04-.58-8.02-1.69-11.9-1.15-3.98-1.28-8.2-.33-12.28l3.46-14.95c.86-3.69-.96-7.49-4.38-9.13l-3.97-1.92-2.99-1.45-.47-.23-7.97.24-.37.13-3.2,1.12-4.11,1.44c-3.85,1.35-6.1,5.34-5.26,9.33l3.59,17.1c.96,4.59.58,9.34-1.08,13.71l-2.12,7.53Z"/>
              <path class="cls-13" d="M121.64,207.47c.08,2.69,2.01,4.82,4.29,4.76,2.28-.06,4.07-2.3,4-4.99-.01-.32.34-4.06.34-4.06l-.47-.23-7.97.24-.37.13s.16,3.73.17,4.16Z"/>
            </g>
            <rect class="cls-7" x="121.37" y="240.48" width="8.13" height="11.7" rx=".77" ry=".77" transform="translate(-7.07 3.73) rotate(-1.66)"/>
            <path class="cls-33" d="M123.54,242.63c0,.31-.25.56-.55.56s-.56-.25-.56-.56.25-.56.56-.56.55.25.55.56Z"/>
            <g>
              <path class="cls-8" d="M114.45,197.64c.52,1.95,2.01,2.54,3.41,2.88.53,1.03,1.23,2.03,2.03,2.92.21.23.41.45.63.66,1.12,1.24,2.54,2.14,4.14,2.48.04,0,.09.02.14.03.09.02.18.05.28.07.07,0,.13,0,.19,0,.05,0,.11.02.16.01.12,0,.25.01.37,0,.12,0,.25-.01.37-.03.05,0,.11-.02.16-.02.06-.01.13-.02.18-.03.1-.01.18-.05.28-.08.04,0,.09-.01.14-.03,1.58-.44,2.94-1.42,3.98-2.73.55-.6,1.07-1.28,1.51-1.98.37-.56.68-1.14.94-1.73,1.37-.44,2.84-1.1,3.23-3.08.31-1.56-.17-3.6-1.47-3.67-.38-.03-.82.13-1.25.4-.64-2.58-2.08-5.32-3.83-7.16-.73-.92-1.56-1.52-2.46-1.86-.49-.22-.97-.35-1.46-.39-.34-.02-.67-.02-.99,0-.33,0-.65.03-.98.06-.49.05-.96.23-1.44.47-.87.4-1.66,1.03-2.34,2-1.63,1.95-2.93,4.76-3.42,7.38-.44-.24-.88-.38-1.27-.33-1.28.15-1.64,2.21-1.25,3.75Z"/>
              <path class="cls-8" d="M119.9,203.44c.21.23.41.45.63.66,1.12,1.24,2.54,2.14,4.14,2.48.04,0,.09.02.14.03.09.02.18.05.28.07.07,0,.13,0,.19,0,.05,0,.11.02.16.01.12,0,.25.01.37,0,.12,0,.25-.01.37-.03.05,0,.11-.02.16-.02.06-.01.13-.02.18-.03.1-.01.18-.05.28-.08.04,0,.09-.01.14-.03,1.58-.44,2.94-1.42,3.98-2.73.55-.6,1.07-1.28,1.51-1.98-.36-.64-.94-1.22-1.66-1.57-.78-.38-1.68-.53-2.56-.66-1.22-.19-2.47-.25-3.7-.1-1.66.21-3.89,1.35-4.38,2.81-.14.4-.22.78-.24,1.14Z"/>
              <g>
                <path class="cls-12" d="M129.27,196.29c.07.46-.21.89-.64.96-.42.06-.82-.26-.89-.72-.07-.46.21-.89.64-.96.42-.06.82.26.89.72Z"/>
                <path class="cls-12" d="M122.36,196.5c.06.41-.19.78-.56.84-.37.06-.72-.23-.78-.63-.06-.41.19-.78.56-.84.37-.06.72.23.78.63Z"/>
                <path class="cls-12" d="M129.97,194.45c-.1.02-.2-.02-.27-.1-.98-1.35-2.25-.56-2.3-.52-.12.08-.28.04-.36-.08-.08-.12-.04-.29.08-.36.6-.39,1.99-.75,3.02.65.09.12.06.28-.06.37-.03.02-.07.04-.1.05Z"/>
                <path class="cls-12" d="M125.86,202.12c.03-.1.11-.17.21-.19,1.65-.26,1.52-1.75,1.52-1.81-.01-.14.09-.27.24-.29.14-.01.27.09.29.24.07.71-.24,2.12-1.96,2.38-.14.02-.28-.08-.3-.22,0-.04,0-.08,0-.11Z"/>
                <path class="cls-12" d="M122.62,194.52c-.06.06-.15.09-.23.06-1.34-.44-1.8.73-1.82.78-.04.11-.17.17-.29.13-.11-.04-.17-.17-.13-.29.22-.56.99-1.49,2.37-1.04.12.04.18.16.14.28,0,.03-.03.06-.05.08Z"/>
                <path class="cls-12" d="M124.5,200.85c-.18,0-.36-.04-.51-.13-.49-.3-.63-1.01-.38-1.91l.54-2.97c.02-.11.13-.19.25-.17.12.02.19.13.17.25l-.55,2.99c-.24.85-.06,1.3.19,1.45.25.15.63.05.96-.26.08-.08.23-.08.31,0,.08.08.09.2,0,.29-.32.3-.67.46-.98.47Z"/>
              </g>
            </g>
            <path class="cls-8" d="M135.02,247.03l-1.12.91c-1.08.88-2.42,1.38-3.8,1.42l-3.53.1c-1.21.03-2.1-1.15-1.77-2.35.21-.78.89-1.31,1.67-1.33.05,0,.11,0,.16,0l2.74.18s-.04-1.25-.05-1.9l2.02,1.57,1.6-1.67,2.09,3.05Z"/>
            <path class="cls-51" d="M147.66,236.8l-12.64,10.23-2.09-3.05,9.08-9.45c.07-.06.09-.15.13-.23l-1.3-3.81-3.77-11.02-5-12.78c-.47-1.2.7-2.4,1.9-1.94,4.04,1.51,6.85,3.93,8.37,8.44l5.12,14.78,1.48,4.37h0c.54,1.61.02,3.39-1.29,4.45Z"/>
            <g>
              <path class="cls-8" d="M103.39,257.03c.17,2.93-.26,4.26-1.13,6.67-.77.01-.8-1.25-.95-1.82-.02-.11-.11-.32-.15-.43-.67.58-.97,1.4-1.25,2.18-.3.78-.21,2.26-.71,2.79-.49.52-.58,1.38-1.68-.08-1.86-2.47-.15-6.64,2.74-8.5-.28-1.62-.54-3.02-.76-4.29l3.54.17c.01.31.04.59.07.84.46,3.41.22,1.37.28,2.47Z"/>
              <path class="cls-17" d="M118.54,205.39c-.08,2.89-.31,5.66-.62,8.52-4.72,6.96-8.94,13.6-11.46,21.69-.01.11-.07-.14-.05.19-2.51,4.18-3.6,13.83-3.37,17.92l-3.54-.17c-.84-4.73-1.23-7.75-.15-14.3,1.38-8.32,5.16-20.77,9.83-28.38,2.45-3.98,4.63-5.17,8.76-5.54.41-.04.26.08.61.06Z"/>
            </g>
            <path class="cls-11" d="M134.93,188.98c-.27-1.45-.69-3.36-1.62-4.54-.98-1.26-3.18-2.41-4.76-2.67-1-.16-2.01-.09-3.02-.13-1.97-.09-3.81-.62-5.72-.87-.33.66.47,1.59.96,1.95-1.65.85-3.99.41-5.97-.11,1.02,3.24,3.12,3.3,3.74,4-1.5.94-4.24.61-6.27-1.18.99,7.97,3.77,7.18,4.37,8.74-.19,1.35.48,3.6,1.4,4.32.78-.82.76-3.05.99-4.15.25-1.18.69-2.22,1.08-3.35-.18.97,1.8,1.42,2.5,1.47.94.06,1.93,0,2.83-.21-.82-.79-.85-1.29-.89-2.4.88,1.37,4.3,3.03,5.91,2.41-.42-.59-.78-1.15-.9-1.87,1.12,1.04,3.02,1.73,3.65,3.15.69,1.55.72,3.28.69,4.94.47-1.4.51-3.01.86-4.48.39-1.67.47-3.33.15-5.03Z"/>
          </g>
          <g>
            <path class="cls-11" d="M189.25,81.86c-.19-1.77-.42-3.88-2.01-4.56-3.52-1.52-8.79,10.35-8.71,12.69.05,1.46.4,2.1,1.2,3.16.83,1.1,1.18,1.26.29,2.32-1.92,2.27-6.54,6.5-3.21,9.71-1.08,1.21-2.92,1.67-4.16,2.82-1.11,1.03-2.55,3.14-2.68,4.92,1.34-.27,2.7-1.34,4.08-1.71,1.64-.45,3.37-.65,5.05-.99,2.57-.51,7.78-1,9.23-4.12.75-1.62.65-4.43.74-6.3.18-3.6.78-7.16.71-10.79-.04-2.37-.29-4.81-.53-7.15Z"/>
            <path class="cls-11" d="M191.71,81.86c.19-1.77.42-3.88,2.01-4.56,3.52-1.52,8.79,10.35,8.71,12.69-.05,1.46-.4,2.1-1.2,3.16-.83,1.1-1.18,1.26-.29,2.32,1.92,2.27,6.54,6.5,3.21,9.71,1.08,1.21,2.92,1.67,4.16,2.82,1.11,1.03,2.55,3.14,2.68,4.92-1.34-.27-2.7-1.34-4.08-1.71-1.64-.45-3.37-.65-5.05-.99-2.57-.51-7.78-1-9.23-4.12-.75-1.62-.65-4.43-.74-6.3-.18-3.6-.78-7.16-.71-10.79.04-2.37.29-4.81.53-7.15Z"/>
            <path class="cls-10" d="M197.39,103.76s5.82-1.92,10.72,5.8c2.32,3.65,4.78,7.21,7.56,10.52l3.59,4.27c1.82,2.16.71,5.48-2.04,6.12h0l-17.44-13.75-2.39-12.96Z"/>
            <path class="cls-34" d="M183.86,104.05s-5.82-1.92-10.72,5.8c-2.32,3.65-4.78,7.21-7.56,10.52l-3.59,4.27c-1.82,2.16-.71,5.48,2.04,6.12h0l17.44-13.75,2.39-12.96Z"/>
            <polygon class="cls-43" points="174.98 144.96 165.7 144.96 180.59 157.95 194.94 158.99 214.19 144.48 203.18 144.13 174.98 144.96"/>
            <path class="cls-13" d="M195.52,103.23l4.08,8.65c-1.02,2.61-16.96,3.63-18.16,1.09l3.14-9.39.99-.12c1.26-.29,1.85-.77,2.13-2.03h0c.17-1.21.06-2.16-.33-2.88l5.55-1.33.2,2.26c.07.81.12,1.63.15,2.43h0c0,.6.45,1.09,1.03,1.15l1.22.16Z"/>
            <g>
              <g>
                <path class="cls-39" d="M220.53,152.51c-.59,2.59-2.62,4.46-5.05,4.98-.22.04-.44.08-.65.1-8.39,2.31-17.62,3.94-27.56,5.03l-3.79-5.01c10.81-3.56,20.46-7.32,27.83-12.5,1.29-.61,2.78-.82,4.26-.47,3.55.81,5.77,4.34,4.96,7.87Z"/>
                <path class="cls-11" d="M187.27,162.61c-2.78.3-5.61.56-8.49.78l-4.87,4.53s-.09.08-.14.12c-2.19,1.73-5.37-.27-4.88-3.02l.29-1.63s0-.03,0-.03c.57-1.6,2.01-2.73,3.67-3.04l5.06-.92c1.89-.6,3.74-1.19,5.57-1.8l3.79,5.01Z"/>
              </g>
              <g>
                <path class="cls-50" d="M193.68,156.68c-.78,1.53-1.83,3.66-2.62,5.28-10.42-1.24-19.91-2.71-26.96-4.79-.22-.03-.44-.06-.65-.11-2.43-.51-4.46-2.39-5.06-4.97-.8-3.55,1.42-7.08,4.97-7.88,1.49-.33,2.97-.13,4.26.47,7.46,4.83,16.31,8.74,26.06,12Z"/>
                <path class="cls-11" d="M204.8,167.63c-.05-.04-.1-.08-.14-.12l-4.95-4.6c-2.93-.31-5.82-.63-8.65-.95.8-1.61,1.85-3.74,2.62-5.28,2.51.85,5.08,1.66,7.71,2.42v.03s4.31.79,4.31.79c1.68.3,3.1,1.44,3.68,3.04,0,0,0,.02,0,.03l.29,1.63c.47,2.75-2.7,4.75-4.88,3.02Z"/>
              </g>
            </g>
            <path class="cls-16" d="M203.17,144.13c-7.93,8.71-17.44,8.31-28.19.83l6.99-11.31c.53-1.22.77-2.53.69-3.86-.05-.93-.26-1.85-.62-2.75l-.28-.67-1.83-4.39c-.59-1.42-.88-2.94-.88-4.45,0-1.28.21-2.56.64-3.8.65-1.88.89-3.88.7-5.86l-.38-3.79c1.19-.38,2.81-.48,4.56-.51l-2.59,7.63c1.19,2.54,15.76,2.61,16.78,0l-3.25-7.98c1.47-.11,2.82-.03,3.98.32,1.19,1.89.53,6.61,2.08,9.76,1.59,3.22.48,7.45-1.2,10.76l-1.76,3.43-1.45,2.83c-.2.56-.28,1.25-.28,1.98,0,.34,0,.69.04,1.03.05.61.24,1.19.57,1.71l5.67,9.08Z"/>
            <path class="cls-8" d="M200.15,87c-.37-.03-.8.11-1.22.35-.55-2.52-1.88-5.21-3.51-7.05-.69-.92-1.48-1.51-2.33-1.87-.46-.23-.93-.38-1.41-.42-.32-.03-.64-.04-.96-.03-.32,0-.63,0-.96.03-.47.04-.94.19-1.41.42-.86.36-1.65.96-2.33,1.87-1.64,1.85-2.96,4.53-3.52,7.05-.42-.25-.84-.39-1.22-.35-1.26.11-1.67,2.1-1.32,3.61.44,1.91,1.88,2.51,3.22,2.89.61,1.27,1.48,2.5,2.48,3.54,1.05,1.23,2.4,2.15,3.94,2.52.05.01.09.02.14.03.09.02.18.05.27.06.06.01.12.01.19.02.05,0,.1.01.16.02.12.01.24.02.36.02.12,0,.24,0,.36-.02.05,0,.1,0,.16-.02.06,0,.12,0,.19-.02.09-.02.18-.04.27-.06.05-.01.09-.02.14-.03,1.54-.37,2.9-1.29,3.94-2.53,1-1.04,1.87-2.27,2.48-3.54,1.34-.38,2.78-.98,3.22-2.89.35-1.51-.06-3.5-1.32-3.61Z"/>
            <path class="cls-8" d="M189.62,144.04s-3.08-5.27-3.66-5.82l-.66-.62c-.73-.69-1.78-.91-2.73-.58l-3.49,1.21c-.55.2-1.16.03-1.54-.41l-.12-.14-1.75-2.02s-8.44-13.96-13.07-11.59c-2.46,1.89-2.31,5.64.27,7.34l9.91,6.52,2.66,1.75,1.75,1.16c.36.23.77.36,1.2.37l4.38.12c-.69,1.54,5.56,4.77,6.85,2.71Z"/>
            <path class="cls-8" d="M191.38,143.37s3.08-5.27,3.66-5.82l.66-.62c.73-.69,1.78-.91,2.73-.58l3.49,1.21c.55.2,1.16.03,1.54-.41l.12-.14,1.75-2.02s8.44-13.96,13.07-11.59c2.46,1.89,2.31,5.64-.27,7.34l-9.91,6.52-2.66,1.75-1.75,1.16c-.36.23-.77.36-1.2.37l-4.38.12c.69,1.54-5.56,4.77-6.85,2.71Z"/>
            <g>
              <path class="cls-12" d="M191.57,95.81c.93-.29,1.94-.97,2.37-2.51.03-.13-.04-.26-.17-.29-.13-.04-.26.04-.29.17-.77,2.75-3.6,2.36-3.72,2.35-.13-.02-.25.07-.27.2-.02.13.07.25.2.27.02,0,.9.13,1.88-.18Z"/>
              <path class="cls-12" d="M194.65,90.07c-.03.45-.42.79-.86.76-.45-.03-.78-.42-.75-.87.03-.45.42-.79.86-.76.45.03.78.42.75.87Z"/>
              <path class="cls-12" d="M188.1,90.07c-.03.45-.42.79-.86.76-.45-.03-.78-.42-.75-.87.03-.45.42-.79.86-.76.45.03.78.42.75.87Z"/>
              <path class="cls-12" d="M195.64,88.03s.02,0,.02,0c.12-.05.18-.19.12-.31-.63-1.44-1.93-1.39-2.54-1.17-.12.05-.18.18-.14.31.05.12.17.19.31.14.04-.02,1.33-.47,1.93.91.05.11.18.17.29.13Z"/>
              <path class="cls-12" d="M188.45,87.1s0-.01.01-.02c.06-.12.01-.26-.1-.32-1.4-.71-2.37.15-2.7.71-.07.11-.03.26.09.32.11.07.25.04.33-.09.02-.04.73-1.21,2.07-.52.11.06.24.02.31-.08Z"/>
              <path class="cls-12" d="M189.9,93.4c.13,0,.23-.1.23-.23,0-.13-.1-.23-.23-.23,0,0-.45-.01-.56-.25-.05-.11-.1-.45.54-1.25.08-.1.06-.24-.04-.32-.1-.08-.24-.06-.33.04-.6.75-.8,1.32-.59,1.74.24.5.94.51.97.51h0Z"/>
            </g>
            <g>
              <path class="cls-2" d="M205.7,129.81h-31.31c-1.01,0-1.78.9-1.63,1.89l2.41,16.23c-.6.15-1.04.68-1.04,1.32h0c0,.75.62,1.37,1.37,1.37h28.9c.75,0,1.37-.62,1.37-1.37h0c0-.73-.59-1.33-1.31-1.36l2.87-16.14c.18-1.01-.6-1.94-1.62-1.94Z"/>
              <path class="cls-26" d="M192.01,138.69c.77.77.77,2.02,0,2.79-.77.77-2.02.77-2.79,0s-.77-2.02,0-2.79c.77-.77,2.02-.77,2.79,0Z"/>
            </g>
            <path class="cls-11" d="M198.45,79.67c-1.85-2.61-4.94-4.09-8.03-3.93-2.36.12-5.98,1.67-7.39,3.77-3.59,5.39-.54,7.84-.54,7.84,1.69,1.49,4.73-2.39,4.64-3.98,1.63.55,2.95-.39,3.29-2.03-.13,1.57,1.75,3.54,3.3,2.43.69,2.24,4.12,5.87,6.13,3.24,1.25-1.64-.04-5.41-1.4-7.34Z"/>
          </g>
          <g>
            <path class="cls-8" d="M348.86,353.66l-.86,2.32h-12.76s-1.56-4.09,9.2-4.09l4.43,1.77Z"/>
            <path class="cls-21" d="M358.36,319.53l-9.29,33.54-.22.58-4.43-1.77c2.03-14.23,5.55-35.57,9.04-39l4.89,6.65Z"/>
            <path class="cls-11" d="M434.26,358.57c1.27-.5,2.03-1.59,2.23-2.75.24-1.37-.29-2.85-1.64-3.7l-1.15-.73c-.6-.38-1.3-.57-2.01-.56l-9.49.19-.81,4.7,10.54,2.97c.77.22,1.6.18,2.33-.12Z"/>
            <path class="cls-30" d="M392.36,341.36s10.84-21.38,10.94-21.09c.1.29,8.55,31.48,8.55,31.48,0,0-27.98,9.2-40.8-2.82l21.31-7.57Z"/>
            <path class="cls-15" d="M382.12,305.65c-14.81-3.47-21.58-.34-28.64,7.24,3.72,17.23,9.05,29.22,19.3,36.05l19.58-7.57-10.24-35.72Z"/>
            <path class="cls-13" d="M365.55,307.64c0,2.9,1.99,5.24,4.45,5.24s4.45-2.35,4.45-5.24c0-.46-.05-.91-.15-1.33l-2.09-.66h-4.61l-1.97,1.02c-.05.31-.08.64-.08.97Z"/>
            <g>
              <path class="cls-8" d="M359.89,295.74c.4-.03.85.11,1.3.38.59-2.68,2-5.54,3.74-7.5.73-.98,1.57-1.61,2.48-1.99.49-.24.99-.4,1.5-.45.34-.03.68-.04,1.02-.04.34,0,.67,0,1.02.04.5.04,1,.21,1.5.45.91.38,1.75,1.02,2.48,1.99,1.74,1.96,3.15,4.82,3.74,7.5.44-.26.9-.41,1.3-.38,1.34.12,1.77,2.23,1.4,3.84-.47,2.03-2,2.67-3.43,3.08-.65,1.35-1.58,2.66-2.64,3.77-1.12,1.31-2.55,2.29-4.2,2.69-.05.01-.1.02-.15.03-.1.02-.19.05-.29.07-.06.01-.13.01-.2.02-.06,0-.11.01-.17.02-.13.01-.25.02-.38.02-.13,0-.26,0-.38-.02-.06,0-.11,0-.17-.02-.07,0-.13,0-.2-.02-.1-.02-.19-.05-.28-.07-.05-.01-.1-.02-.14-.03-1.64-.4-3.08-1.37-4.2-2.69-1.07-1.1-1.99-2.42-2.64-3.77-1.42-.41-2.96-1.04-3.43-3.08-.37-1.6.07-3.72,1.4-3.84Z"/>
              <g>
                <path class="cls-12" d="M366.55,298.62c-.06.48.25.91.69.97.44.05.84-.29.9-.77.06-.48-.25-.91-.69-.97-.44-.05-.84.29-.9.77Z"/>
                <path class="cls-12" d="M373.08,298.62c-.06.48.25.91.69.97.44.05.84-.29.9-.77.06-.48-.25-.91-.69-.97-.44-.05-.84.29-.9.77Z"/>
                <path class="cls-12" d="M365.74,297.5c.1.02.21-.02.27-.11.98-1.43,2.3-.64,2.36-.61.13.08.29.04.37-.09.08-.13.04-.3-.09-.37-.63-.38-2.08-.71-3.09.76-.08.12-.05.29.07.38.03.02.07.04.11.04Z"/>
                <path class="cls-12" d="M369.73,304.53c-.03-.1-.12-.17-.23-.19-1.72-.22-1.62-1.76-1.62-1.82.01-.15-.1-.28-.25-.29-.15-.01-.28.1-.29.25-.05.73.32,2.18,2.09,2.4.15.02.29-.09.3-.24,0-.04,0-.08,0-.12Z"/>
                <path class="cls-12" d="M372.73,296.49c.06.06.15.09.24.06,1.37-.49,1.88.69,1.91.75.05.12.18.17.3.12.12-.05.17-.18.12-.3-.24-.57-1.07-1.51-2.48-1-.12.04-.18.17-.14.29.01.03.03.06.05.08Z"/>
                <path class="cls-12" d="M371.09,303.19c.19,0,.37-.05.52-.15.5-.32.62-1.06.33-1.98l-.65-3.05c-.02-.12-.14-.19-.26-.17-.12.03-.19.14-.17.26l.65,3.07c.27.87.1,1.34-.15,1.5-.26.17-.65.07-1-.24-.09-.08-.24-.08-.32,0-.08.09-.09.21,0,.3.34.3.7.45,1.03.45Z"/>
              </g>
            </g>
            <path class="cls-11" d="M422.03,375.49c-.42,1.18-1.44,1.98-2.57,2.29-1.34.37-2.84.06-3.78-1.03l-.8-.94c-.42-.49-.65-1.09-.69-1.72l-.44-8.44,4.61-1.25,3.63,9.01c.27.66.28,1.4.04,2.08Z"/>
            <path class="cls-24" d="M411.56,355.7l9.02-.21.81.22.81-4.7h-.85s-46.09-7.91-46.09-7.91c-.22-.04-.43-.06-.65-.06-.54-.02-1.6-.01-2.77.22-3.98.79-5.2,5.72-2.11,8.35,2.14,1.83,4.91,3.04,8.14,3.82h.01c9.04,2.19,21.62.98,33.68.27Z"/>
            <path class="cls-3" d="M417.69,355.67l.39,8.03.27.69-4.61,1.25-.04-.75-10.89-40c-.05-.19-.09-.38-.11-.57-.06-.48-.12-1.42.04-2.49.52-3.62,5.32-5.27,8.13-2.82,1.95,1.69,3.33,4.01,4.32,6.79h0c2.77,7.79,2.4,19.09,2.49,29.87Z"/>
            <g>
              <g>
                <path class="cls-12" d="M384.32,325.22l-3.32,3.83c-.29.33-.25.83.08,1.11l6.79,5.93c.34.3.86.25,1.14-.11l2.91-3.7c.25-.32.22-.78-.08-1.06l-6.37-6.06c-.33-.31-.85-.29-1.14.05Z"/>
                <path class="cls-26" d="M382.56,329.71c0,.35.28.63.63.63s.63-.28.63-.63-.28-.63-.63-.63-.63.28-.63.63Z"/>
              </g>
              <path class="cls-46" d="M404.83,316.61c-1.06,3.63-4.02,11.59-10.77,16.81l-1.84-5.97,4.19-6.35-12.62-5.02c-2.65-1.06-3.99-4.02-3.03-6.71l1.35-3.73,21.48,8.23c1.03.48,1.55,1.65,1.23,2.74Z"/>
            </g>
            <path class="cls-8" d="M394.07,333.42c-1.63,1.26-3.47,2.36-5.56,3.21-1.32.53-2.81.07-3.62-1.09-.29-.43-.58-.93-.83-1.53l-2.56.43s-2.39-.5,6.01-4.26l1.35-1.05-2.25-3.21s.66-1.12,5.16,2.23l.46-.7,1.84,5.97Z"/>
            <g>
              <path class="cls-12" d="M361.26,296.25s-.01-.02-.01-.03c0,0,0-.01-.01-.02l.03.05Z"/>
              <path class="cls-32" d="M378.85,290.95c-1.06-1.29-1.97-2.69-2.7-4.19-.75-1.53-2.55-2.31-4.19-2.46-1.85-.16-3.68.29-5.37,1.02-2,.86-3.57,2.69-4.99,4.29-1.5,1.69-2.73,4.4-1.07,6.33.14.17,1.51,1.56,1.57,1.71.07.18-.3.86-.32,1.13-.03.31-.02.67,0,.98.06.84.49,1.77,1.47,1.34.86-.38.83-1.37.86-2.15.04-.91.02-2.09-.47-2.91,4.06-1.13,5.23-4.62,5.55-5.1.27.78,1.29,1.58,1.94,2.06.68.5,1.3,1.07,2.04,1.47.68.37,1.41.73,2.15.98.33.11.73.02.89.35.1.2,0,.7,0,.93,0,.83.08,1.54.47,2.29.16.32.34.81.75.7.37-.09.64-.8.74-1.12.19-.64.31-1.29.52-1.92.23-.65.48-1.13.81-1.73.69-1.24.2-2.98-.64-3.99Z"/>
            </g>
          </g>
          <g>
            <path class="cls-32" d="M551.76,239.87c-.1-1.16-.21-2.32-.37-3.48-.43-3.22-1.01-6.39-1.74-9.45-.7-2.94-1.49-5.79-2.61-8.28-1.18-2.62-2.26-5.36-3.25-8.2-.91-2.62-1.74-5.32-2.45-8.12-5.78.24-11.56.48-17.33.72-1.28,6.07-3.59,11.32-6.01,16.24-2.42,4.92-4.99,9.68-6.94,15.2s-3.23,12-2.78,18.42c1.01-6.14,3.73-11.37,7.15-13.75-1.19,4.23-.57,9.49.98,13.36,1.55,3.87,3.9,6.55,6.31,8.72,2.6,2.34,5.34,4.2,8.16,5.55,1.16.56,2.38,1.03,3.57.67,1.06-.31,2.03-1.26,2.92-2.31,5.3-6.27,8.73-17.04,8.97-28.15.98,1.61,2.27,2.49,3.43,3.7,1.16,1.2,2.27,2.96,2.46,5.28-.17-2.06-.28-4.1-.45-6.14Z"/>
            <g>
              <g>
                <path class="cls-4" d="M563.36,246.68l-3.81-4.54c-.17-.19-.34-.4-.5-.6-2.76-3.35-5.22-6.94-7.55-10.6-1.46-2.31-3.6-4.28-6.11-5.47-2.83-1.34-5.87-1.15-8.87-1.49,0,0,.21.43.39,1.04.31,1.09,1.32,1.6,2.12,2.29,2.5,2.17,2.72,5.86,3.13,8.92.24,1.81.85,2.67,2.26,3.75,1.17.9,2.32,1.83,3.48,2.74,1.61,1.27,3.22,2.54,4.84,3.81l8.47,6.67c2.92-.68,4.11-4.21,2.17-6.51Z"/>
                <path class="cls-29" d="M526.47,224.63c-5.38.1-9.72,1.63-12.7,6.31-2.36,3.72-4.85,7.33-7.66,10.73-.12.16-.25.31-.38.47l-3.81,4.54c-1.94,2.3-.75,5.83,2.17,6.51l7.78-6.13,10.78-8.49c.18-.98.36-1.97.54-2.95.32-1.75,4.94.35,5.75-1.26.74-1.49-2.2-6.52-1.49-8.03.34-.67.63-1.38.89-2.11-.11.31-1.01.4-1.85.41Z"/>
              </g>
              <path class="cls-13" d="M539.12,227.38c-.78-.72-1.46-1.49-1.98-2.37h0c-.2-.33-.38-.65-.53-1.02-1.21-.12-.95-2.34-.95-2.42-.02-.44-.05-.9-.1-1.33l-.22-2.41-5.9,1.42c.33.6.46,1.34.41,2.28-.01.24-.02.5-.06.77h0s-.02.09-.04.19c-.19.77-.51,1.22-1.05,1.54-.11.06-.25.14-.38.19-.26.73-.55,1.44-.89,2.11-.5,1.08-1.11,2.09-1.82,2.96.62,4.45,3.5,7.83,6.95,7.83,3.82,0,6.92-4.11,7.07-9.25-.17-.17-.33-.33-.52-.49Z"/>
              <path class="cls-9" d="M545.15,267.72l-21.92.51c-5.96.13-8.64,7.53-4.15,11.45l3.15,2.75,21.41.11s9.62-13.5,1.51-14.81Z"/>
              <g>
                <path class="cls-8" d="M543.03,206.95c-.4-.03-.85.11-1.3.38-.59-2.68-2-5.54-3.74-7.5-.73-.97-1.57-1.61-2.48-1.99-.49-.24-.99-.4-1.49-.45-.34-.03-.68-.04-1.02-.04-.34,0-.67,0-1.02.04-.5.04-1,.21-1.49.45-.91.38-1.75,1.02-2.48,1.99-1.74,1.96-3.15,4.82-3.74,7.5-.44-.26-.9-.41-1.3-.38-1.34.12-1.77,2.23-1.4,3.84.47,2.03,2,2.67,3.43,3.08.65,1.35,1.58,2.66,2.64,3.77,1.11,1.31,2.55,2.29,4.19,2.69.05.01.1.02.15.03.1.02.19.05.28.07.07.01.13.01.2.02.06,0,.11.01.17.02.13.01.25.02.38.02.13,0,.26,0,.38-.02.06,0,.11,0,.17-.02.07,0,.13,0,.2-.02.1-.02.19-.05.29-.07.05-.01.1-.02.14-.03,1.64-.4,3.08-1.37,4.2-2.69,1.07-1.1,1.99-2.42,2.64-3.77,1.42-.41,2.96-1.04,3.43-3.08.37-1.6-.07-3.72-1.4-3.84Z"/>
                <path class="cls-12" d="M533.64,216.03c.94-.29,1.96-.98,2.39-2.53.04-.13-.04-.26-.17-.3-.13-.04-.26.04-.3.17-.77,2.78-3.63,2.39-3.76,2.37-.13-.02-.25.07-.27.2-.02.13.07.25.2.27.02,0,.91.13,1.9-.18Z"/>
                <path class="cls-12" d="M537.74,208.18s.02,0,.02,0c.12-.05.18-.2.12-.32-.63-1.45-1.95-1.4-2.56-1.18-.12.05-.19.18-.14.31.05.12.17.19.31.14.04-.02,1.34-.48,1.95.92.05.11.18.17.29.13Z"/>
                <path class="cls-12" d="M530.48,207.25s0-.01.01-.02c.06-.12.01-.26-.1-.32-1.41-.72-2.4.15-2.73.71-.07.11-.03.26.09.33.11.07.25.04.33-.09.02-.04.74-1.22,2.09-.53.11.06.24.02.31-.08Z"/>
                <path class="cls-12" d="M531.92,213.8c-1.02-.17-1.17-.64-1.19-.74-.01-.06,0-.13.04-.18l1.38-2.06c.07-.11.22-.14.33-.07.11.07.14.22.07.33l-1.3,1.94c.1.11.41.32,1.3.36.15,0,.23.12.23.25,0,.13-.12.24-.25.23-.23,0-.43-.03-.6-.06Z"/>
                <path class="cls-12" d="M528.93,210.25c.03.45.39.79.81.76.42-.03.73-.41.7-.86-.03-.45-.39-.79-.81-.76s-.73.41-.7.86Z"/>
                <path class="cls-12" d="M534.97,210.25c.03.45.39.79.81.76.42-.03.73-.41.7-.86-.03-.45-.39-.79-.81-.76s-.73.41-.7.86Z"/>
              </g>
              <path class="cls-25" d="M546.25,267.72c-8.43,9.26-18.55,8.83-29.98.88l7.42-12.03c.31-.71.53-1.45.64-2.21.11-.62.14-1.26.1-1.9-.05-1-.28-1.97-.67-2.93l-.29-.7-1.95-4.67c-.62-1.51-.93-3.12-.93-4.74,0-1.35.23-2.71.69-4.04h0c.43-1.27,1.04-2.46,1.92-3.45.42-.46.84-.92,1.27-1.37h.01c.17-.19.32-.36.49-.54.23-.24.44-.47.63-.73.62,4.45,3.5,7.83,6.95,7.83,3.82,0,6.92-4.11,7.07-9.25.13.12.26.25.39.38v.02c1.59,1.59,2.94,3.37,4.01,5.31.15.47.32.93.53,1.35,1.7,3.42.53,7.93-1.28,11.44l-1.87,3.65-1.53,3.03c-.06.14-.11.28-.14.43-.12.49-.16,1.07-.16,1.66,0,.36,0,.73.02,1.11.05.63.28,1.27.62,1.81l6.03,9.67Z"/>
              <g>
                <path class="cls-8" d="M562.15,253.48l-10.54,6.93-2.84,1.87-1.62,1.07-1.03-2.73c.16-.08.3-.19.43-.33l.13-.15,1.87-2.14s8.97-14.85,13.89-12.33c2.62,2.01,2.46,6-.29,7.81Z"/>
                <path class="cls-8" d="M547.15,263.35l-.24.16c-.38.24-.82.38-1.27.4l-4.66.12c.73,1.64-5.92,5.07-7.28,2.87,0,0,3.28-5.61,3.89-6.19l.7-.66c.78-.73,1.9-.97,2.91-.62l3.71,1.28c.41.14.84.1,1.2-.09l1.03,2.73Z"/>
              </g>
              <g>
                <path class="cls-8" d="M503.14,253.48l10.54,6.93,2.84,1.87,1.62,1.07,1.03-2.73c-.16-.08-.3-.19-.43-.33l-.13-.15-1.87-2.14s-8.97-14.85-13.89-12.33c-2.62,2.01-2.46,6,.29,7.81Z"/>
                <path class="cls-8" d="M518.13,263.35l.24.16c.38.24.82.38,1.27.4l4.66.12c-.73,1.64,5.92,5.07,7.28,2.87,0,0-3.28-5.61-3.89-6.19l-.7-.66c-.78-.73-1.9-.97-2.91-.62l-3.71,1.28c-.41.14-.84.1-1.2-.09l-1.03,2.73Z"/>
              </g>
            </g>
            <g>
              <path class="cls-22" d="M548.2,252.48h-33.3c-1.07,0-1.89.95-1.74,2.01l2.57,17.26c-.63.16-1.11.73-1.11,1.41h0c0,.8.65,1.45,1.45,1.45h30.74c.8,0,1.45-.65,1.45-1.45h0c0-.78-.62-1.42-1.4-1.45l3.05-17.17c.19-1.07-.64-2.06-1.73-2.06Z"/>
              <path class="cls-26" d="M534.38,261.93c.82.82.82,2.15,0,2.97-.82.82-2.15.82-2.97,0-.82-.82-.82-2.15,0-2.97.82-.82,2.15-.82,2.97,0Z"/>
            </g>
            <g>
              <g>
                <path class="cls-44" d="M546.98,317.04l-3.07,2.51s-.01-.03-.01-.04c-3.27-4.24-11.44-15.83-14.87-20.11-8.43-10.58-13.48-18.15-13.26-26.33.04-1.44.67-2.74,1.64-3.67.98-.93,2.32-1.51,3.76-1.51,3.16,0,6,1.89,7.23,4.79l7.57,21.58,11.02,22.79Z"/>
                <path class="cls-11" d="M554.3,328.24c-1.31-4.76-2.95-6.89-7.13-10.45,0,0-.01,0-.01-.01-.28-.23-.57-.48-.87-.72l-.03.02v-.03s-3.09,2.51-3.09,2.51c.16.58.33,1.12.51,1.64,1.68,4.75,4.26,7.34,6.2,9.36,2.1,2.16,5.21.59,4.41-2.31Z"/>
              </g>
              <path class="cls-23" d="M549.25,273.07c.22,8.18-4.83,15.75-13.26,26.33-3.43,4.28-11.6,15.87-14.87,20.11,0,.01-.01.03-.01.04l-3.14-2.48s.02-.01.03-.02l.02.02,11.03-22.82,7.57-21.58c1.22-2.91,4.06-4.79,7.23-4.79,1.45,0,2.79.58,3.76,1.51.98.93,1.6,2.23,1.64,3.67Z"/>
              <path class="cls-11" d="M517.96,317.08c-.54.46-1.05.89-1.52,1.29-3.68,3.23-5.22,5.38-6.45,9.88-.81,2.9,2.3,4.47,4.39,2.31-1.36,1.4,5.56-7.68,5.95-8.69.28-.71.53-1.49.77-2.31l-3.14-2.48Z"/>
            </g>
            <path class="cls-32" d="M540.6,199.91c-.69-1.34-1.69-2.47-3.12-3.19-2.24-1.14-5.06-1.01-7.43-.33-2.43.7-4.51,2.49-5.59,4.8-1.21,2.6-.97,5.64.05,8.26.05.13.1.25.15.37.33.78.98,1.92,1.78,2.29.11-1.8.1-3.5.89-5.18.46-.98.92-1.9,1.6-2.76.34-.42.71-.82,1.05-1.24.23-.29.4-.73.77-.85-.28,1.12-.53,2.05-.42,3.22.12,1.24,1.2,2.2,1.3,3.43.18-.64.83-1.31,1.24-1.83.6-.75,1.39-1.32,2.23-1.8.52-.3,1.02-.59,1.51-.91.24.73.48,1.45.81,2.16.45.94,1.15,1.61,1.64,2.5.35.62.75,1.29.95,1.98.14.48.1,1.01.21,1.47,1.15-1.44,1.49-3.59,1.6-5.36.14-2.3-.14-4.92-1.23-7.04Z"/>
            <path class="cls-32" d="M538.25,207.3c.21.33.46.62.69.94.41.56.4.96.44,1.63.1,1.54.12,3.12-.29,4.61-.3,1.09-.76,2.14-1,3.25-.34,1.57-.83,2.97-1.4,4.48-1.12,3-2.71,6.4-1.58,9.61.39,1.11.87,2,1.59,2.93.42.55,1.02.81,1.57,1.21-.73-.79-.09-2.62.19-3.45s.7-1.54,1.14-2.29c.64-1.09,1.08-2.28,1.51-3.47.85-2.31,1.51-4.95,1.69-7.4.07-1.04.17-2.1.17-3.14,0-1.37-.3-2.63-.62-3.95-.35-1.47-.22-2.44-.5-7.19"/>
            <path class="cls-32" d="M527.2,205.75c-.21.33-.65,3.45-.69,4.12-.1,1.54-.12,3.12.29,4.61.3,1.09.76,2.14,1,3.25.34,1.57.83,2.97,1.4,4.48,1.12,3,2.71,6.4,1.58,9.61-.39,1.11-.87,2-1.59,2.93-.42.55-1.02.81-1.57,1.21.73-.79.09-2.62-.19-3.45-.28-.83-.7-1.54-1.14-2.29-.64-1.09-1.08-2.28-1.51-3.47-.85-2.31-1.51-4.95-1.69-7.4-.07-1.04-.17-2.1-.17-3.14,0-1.37.3-2.63.62-3.95.35-1.47.22-2.44.5-7.19"/>
          </g>
          <g>
            <path class="cls-45" d="M544.36,154.89c-1.25,3-4.47,4.45-9.35,4.55-1.27.04-2.53-.04-3.78-.2-3.39-.45-6.67-1.61-9.64-3.32l-19.98-11.46-2.15-1.24c-1.72-.99-3.66-1.49-5.57-1.49-2.06,0-4.14.57-5.96,1.72-3.97,2.5-5.97,7.18-5.02,11.79l1.36,6.53-.02.13-13.57,17.28c-.82-.27-2.09-.67-3.61-1.15l16.8-41.91c3.29-8.17,12.32-12.76,20.65-9.88l11.82,4.47h0s17.47,6.04,17.47,6.04c5.86,2.01,10.27,7.09,11.02,13.23.24,1.97.06,3.6-.48,4.94Z"/>
            <path class="cls-40" d="M531.25,159.25l-31.31-.59-2.63,47.6c-1.07.28-2.31.59-3.63.92l-9.42-45.42-1.36-6.53c-.95-4.6,1.05-9.29,5.02-11.79,1.82-1.15,3.9-1.72,5.96-1.72,1.91,0,3.85.5,5.57,1.49l2.15,1.24,29.62,14.78h.02Z"/>
            <path class="cls-49" d="M544.36,154.89h0c.56-1.34.73-2.97.49-4.94-.75-6.14-5.16-11.23-11.02-13.24l-8.25-2.85c7.98-9.99,11.18-19.87,6.31-38.93l6.62-3.76c22.56,28.02,20.25,47.85,5.86,63.71Z"/>
            <path class="cls-48" d="M544.36,154.89h0c.56-1.34.73-2.97.49-4.94-.75-6.14-5.16-11.23-11.02-13.24l-8.25-2.85c7.98-9.99,11.18-19.87,6.31-38.93l6.62-3.76c22.56,28.02,20.25,47.85,5.86,63.71Z"/>
            <path class="cls-47" d="M508.92,123.8c.12-.28,1.25-4.28,1.25-4.28l34.78,5.11-8.27-15.8c-1.52-2.91-2.59-6.09-2.6-9.37-.02-4.24,2.32-7.57,7.08-5.9,4.37,1.53,7.84,4.93,9.74,9.14,9.9,21.88,9.15,34.61-6.73,34.89-4.54.08-9.01-1.15-13-3.31l-22.24-10.47Z"/>
            <path class="cls-37" d="M510.17,119.52l-1.25,4.28-10.24-4.2c1.6-4.06,5.75-4.05,11.49-.09Z"/>
            <path class="cls-7" d="M513.38,129.66h0l-24.3-9.42s-3.8-27.64-3.52-27.64h0c2.07,0,3.82,1.5,4.14,3.54l3.31,21.14,18.27,7.49c1.92.79,2.85,2.96,2.09,4.89Z"/>
            <path class="cls-13" d="M538.5,91.18l-3.91-6.23-5.98,2.58c1.88,2.46,3.27,7.41,3.27,7.41l6.62-3.76Z"/>
            <g>
              <path class="cls-8" d="M534.96,76.37c-.94-1.99-2.35-3.77-4-5.28-1.49-1.36-3.6-2.85-5.75-2.54-1.19.17-2.37.54-3.34,1.25-1.1.81-1.81,1.99-2.22,3.27-.63,1.96-.64,4.1-.49,6.13.05.74.13,1.48.23,2.21.11.79.29,1.63.16,2.44-.05.35-.1.71-.13,1.06-.02.22-.08.53,0,.75.13.36.69.36,1.1.33.04,0,.07-.02.09-.04,1.6,3.08,4.75,5.38,8.09,5.19,2.11-.12,3.78-1.82,4.89-3.47,2.25-3.34,3.13-7.56,1.35-11.33Z"/>
              <path class="cls-12" d="M524,86.08c.58-.68,1.03-1.7.61-3.1-.03-.11-.16-.18-.27-.15-.11.03-.18.16-.15.27.75,2.5-1.63,3.58-1.73,3.63-.11.05-.16.18-.11.29.05.11.18.16.29.11.01,0,.76-.34,1.36-1.05Z"/>
              <path class="cls-12" d="M522.25,81.9c.13.43-.12.88-.54,1-.43.12-.87-.12-1-.55-.13-.43.12-.88.54-1s.87.12,1,.55Z"/>
              <path class="cls-12" d="M522.75,79.45s.01-.01.02-.02c.09-.08.09-.22,0-.31-.99-1.04-2.09-.58-2.54-.2-.09.08-.1.22-.02.31.08.09.2.11.31.02.03-.03.99-.82,1.94.17.08.08.2.09.29.02Z"/>
            </g>
            <g>
              <path class="cls-11" d="M485.3,217.13c-1.57.53-3.24-.71-.88-2.48l9.29-7.38-.03-.1c1.32-.33,2.56-.65,3.63-.92v.14c4.19,4.98-.8,6.82-12.02,10.74Z"/>
              <path class="cls-11" d="M470.54,179.34c.75,6.47-4.43,5.26-15.96,2.32-1.6-.43-2.29-2.39.65-2.55l11.81-1.02.04-.07c1.52.47,2.78.88,3.61,1.15l-.14.18Z"/>
            </g>
            <path class="cls-11" d="M538.4,77.53c-.04-1.11-.54-1.67-1.17-2.52.68-.9.57-2.39.15-3.38-.31-.72-1.29-1.8-2.14-1.73-.16-1.23-1.36-2.73-2.36-3.36-.42-.26-2.11-.91-1.96.16-.93-1.32-5.26-2.33-5.76-.44-1.12-.28-2.3.07-3.34.47-.51.2-1.21.39-1.46.93-.23.48.15.41-.38.66-.32.15-.85.19-1.21.33-.55.23-1.12.46-1.54.89-.6.62-1.35,2.16-1.26,3.07,0,0-1.18,1.33.12,2.89.54.65.48,1.3,1.21,1.87.8.63,2,.88,2.97.45.8-.36.86-.74,1.73-.73.9,0,1.72-.06,2.57-.38.69-.26.99-.76,1.6-1.1.44,1.15.67,2.09,1.86,2.57-.22.87-.57,1.61-.08,2.51.55,1.02,1.13,1.05,2.01,1.31-.4-.25-.44-1.02-.32-1.44.2-.7.84-1.26,1.52-1.18,4.21.46,2.17,5.42,2.17,5.42.28,1.52,2.28,1.27,3.14.7,1.23-.81,1.78-2.96.91-4.27.97-.97,1.09-2.38,1.04-3.7Z"/>
          </g>
          <g>
            <g>
              <path class="cls-18" d="M188.78,23.2l7.1,12.94c-3.55,6.61-8.72,11.75-15.42,15.47-5.2,2.92-11.33,4.99-18.35,6.24-.06.01-.14.02-.2.03l-8.57-16.42s.05-.08.09-.12c3.54-4.99,7.55-8.94,12.04-11.86,6.73-4.4,14.52-6.47,23.31-6.3Z"/>
              <path class="cls-28" d="M199.7,26.36c-.94,3.56-2.21,6.82-3.82,9.79l-7.1-12.94c1.92.03,3.88.17,5.9.42,1.05.15,2.27.33,3.68.56.2.03.4.11.57.21.09.05.17.12.25.18.48.43.7,1.12.53,1.78Z"/>
              <path class="cls-5" d="M180.47,51.62c-7.08,6.62-14.13,12.12-21.18,15.25l2.83-9.01c7.02-1.25,13.15-3.32,18.36-6.24Z"/>
              <path class="cls-19" d="M165.46,29.51c-4.48,2.92-8.49,6.87-12.03,11.85l-11.14-3.5c6.26-3.8,14.28-6.39,23.18-8.36Z"/>
              <polygon class="cls-27" points="149.42 53.97 153.73 46.66 175.11 38.49 158.18 53.87 149.42 53.97"/>
              <path class="cls-7" d="M178.87,31.94c-.96,3.07.75,6.34,3.81,7.3,3.07.96,6.34-.74,7.3-3.81.96-3.07-.74-6.34-3.81-7.3-3.07-.96-6.34.75-7.3,3.81Z"/>
            </g>
            <g>
              <path class="cls-54" d="M147.7,53.9c-.16-.05-1.04.35-2.4,1.15"/>
              <path class="cls-55" d="M140.62,58.15c-15.45,11.22-47.21,43.38-1.16,81.16"/>
              <path class="cls-54" d="M141.66,141.07c.69.54,1.4,1.09,2.13,1.63"/>
            </g>
          </g>
          <g>
            <g>
              <path class="cls-42" d="M334.82,139.59c3.56,6.61,8.72,11.74,15.41,15.47,5.21,2.92,11.34,4.99,18.36,6.24.06,0,.14.03.2.04l8.58-16.42s-.05-.08-.09-.12c-3.55-4.99-7.56-8.93-12.03-11.85-6.73-4.4-14.52-6.48-23.32-6.3-3.07.05-6.26.38-9.58.98-1,.18-1.6,1.19-1.34,2.17.94,3.57,2.21,6.83,3.81,9.8Z"/>
              <path class="cls-52" d="M350.23,155.06c7.08,6.62,14.13,12.12,21.18,15.25l-2.83-9.01c-7.02-1.25-13.15-3.32-18.36-6.24Z"/>
              <path class="cls-1" d="M365.24,132.95c4.48,2.92,8.49,6.87,12.03,11.85l11.14-3.5c-6.26-3.8-14.28-6.39-23.18-8.36Z"/>
              <polygon class="cls-35" points="381.29 157.41 376.97 150.1 355.59 141.93 372.53 157.32 381.29 157.41"/>
              <path class="cls-7" d="M351.84,135.38c.96,3.07-.75,6.34-3.81,7.3-3.07.96-6.34-.75-7.3-3.81-.96-3.07.74-6.34,3.81-7.3,3.07-.96,6.34.75,7.3,3.81Z"/>
              <path class="cls-20" d="M334.82,139.59l7.11-12.95c-.47-.29-2.94-.06-9.58.98-1,.16-1.6,1.19-1.34,2.17.94,3.57,2.21,6.83,3.81,9.8Z"/>
            </g>
            <g>
              <path class="cls-54" d="M383,157.35c.16-.05,1.04.35,2.4,1.15"/>
              <path class="cls-53" d="M390.08,161.59c15.45,11.22,47.21,43.38,1.16,81.16"/>
              <path class="cls-54" d="M389.04,244.52c-.69.54-1.4,1.09-2.13,1.63"/>
            </g>
          </g>
        </g>
      </g>
    </g>
  </g>
</svg>