<?xml version="1.0" encoding="UTF-8"?>
<svg xmlns="http://www.w3.org/2000/svg" viewBox="0 0 214.78 142.3">
  <defs>
    <style>
      .cls-1, .cls-2, .cls-3 {
        opacity: .5;
      }

      .cls-4 {
        isolation: isolate;
      }

      .cls-5 {
        fill: #15367b;
      }

      .cls-5, .cls-2, .cls-6, .cls-7, .cls-8, .cls-9, .cls-10, .cls-11, .cls-3, .cls-12, .cls-13 {
        stroke-width: 0px;
      }

      .cls-2 {
        fill: #57bb9c;
        mix-blend-mode: soft-light;
      }

      .cls-6 {
        fill: #2b6aa6;
      }

      .cls-7 {
        fill: #c5ccdd;
      }

      .cls-8 {
        fill: #fff;
      }

      .cls-9 {
        fill: #b1bad1;
      }

      .cls-10 {
        fill: #506598;
      }

      .cls-11 {
        fill: #8290b5;
      }

      .cls-3 {
        fill: #d9dde8;
      }

      .cls-12 {
        fill: #c7cede;
      }

      .cls-13 {
        fill: #fd8201;
      }
    </style>
  </defs>
  <g class="cls-4">
    <g id="Capa_2" data-name="Capa 2">
      <g id="Capa_1-2" data-name="Capa 1">
        <g>
          <path class="cls-12" d="M45.12,86.12c-5.49,2.53-10.39,6.8-12.59,12.43-3.25,8.29,0,18.08,6.1,24.56,6.1,6.49,14.56,10.21,23.04,12.92,28.6,9.16,60.51,8.47,88.12-3.35,18.71-8.01,34.96-20.72,50.97-33.28,4.73-3.71,9.62-7.62,12.18-13.07,4.03-8.58.63-19.85-7.34-24.98-5.14-3.3-11.45-4.12-17.11-6.4-17.44-7.02-26.29-26.52-41.52-37.54-10.12-7.32-23.08-10.61-35.47-9.01-8.89,1.15-18.05,5.31-22.19,13.26-3.39,6.5-2.85,14.24-3.65,21.54-1.23,11.26-6,22.07-13.32,30.69-2.88,3.4-5.94,6.89-10.29,8.18-5.65,1.67-11.4,1.49-16.93,4.03Z"/>
          <g>
            <g>
              <path class="cls-10" d="M177.7,47.73v86.72H49.17V47.73c0-1.55,1.26-2.81,2.81-2.81h122.9c1.56,0,2.82,1.26,2.82,2.81Z"/>
              <path class="cls-11" d="M26.79,134.45h173.28c.25,0,.44.2.44.44v3.04c0,2.27-1.85,4.12-4.12,4.12H30.47c-2.27,0-4.12-1.85-4.12-4.12v-3.04c0-.25.2-.44.44-.44Z"/>
              <rect class="cls-6" x="53.76" y="49.47" width="119.35" height="80"/>
              <path class="cls-2" d="M94.33,134.45h38.21v1.58c0,1.01-.82,1.83-1.83,1.83h-34.54c-1.01,0-1.83-.82-1.83-1.83v-1.58h0Z"/>
            </g>
            <g>
              <path class="cls-2" d="M177.7,57.2v19.74h-84.59c-1.45,0-2.62-1.17-2.62-2.62v-14.5c0-1.45,1.17-2.62,2.62-2.62h84.59Z"/>
              <g>
                <rect class="cls-8" x="91.57" y="55.43" width="101.44" height="19.73" rx="2.62" ry="2.62"/>
                <g>
                  <circle class="cls-5" cx="103.15" cy="65.14" r="7.86" transform="translate(16.12 150.64) rotate(-76.76)"/>
                  <g>
                    <polygon class="cls-2" points="97.87 66.19 101.92 70.31 109.1 63.11 107.38 61.5 102 67.01 99.68 64.44 97.87 66.19"/>
                    <polygon class="cls-8" points="97.87 65.79 101.92 69.91 109.1 62.72 107.38 61.1 102 66.62 99.68 64.04 97.87 65.79"/>
                  </g>
                </g>
                <g>
                  <rect class="cls-6" x="114.18" y="59.89" width="72.65" height="2.41"/>
                  <rect class="cls-6" x="114.18" y="64.3" width="72.65" height="2.41"/>
                  <rect class="cls-6" x="114.18" y="68.7" width="72.65" height="2.41"/>
                </g>
              </g>
            </g>
            <g>
              <rect class="cls-2" x="62.93" y="80.71" width="101.44" height="19.73" rx="2.62" ry="2.62"/>
              <g>
                <path class="cls-8" d="M66.62,78.93h96.2c1.44,0,2.62,1.17,2.62,2.62v14.5c0,1.44-1.17,2.62-2.62,2.62h-96.2c-1.44,0-2.62-1.17-2.62-2.62v-14.5c0-1.44,1.17-2.62,2.62-2.62Z"/>
                <g>
                  <circle class="cls-5" cx="75.58" cy="88.65" r="7.86"/>
                  <g>
                    <polygon class="cls-2" points="70.3 89.7 74.36 93.81 81.53 86.62 79.81 85 74.43 90.52 72.11 87.95 70.3 89.7"/>
                    <polygon class="cls-8" points="70.3 89.3 74.36 93.42 81.53 86.22 79.81 84.6 74.43 90.12 72.11 87.55 70.3 89.3"/>
                  </g>
                </g>
                <g>
                  <rect class="cls-6" x="86.61" y="83.4" width="72.65" height="2.41"/>
                  <rect class="cls-6" x="86.61" y="87.8" width="72.65" height="2.41"/>
                  <rect class="cls-6" x="86.61" y="92.21" width="72.65" height="2.41"/>
                </g>
              </g>
            </g>
            <g>
              <rect class="cls-2" x="62.93" y="105.17" width="101.44" height="19.73" rx="2.62" ry="2.62"/>
              <g>
                <path class="cls-8" d="M66.62,103.4h96.2c1.44,0,2.62,1.17,2.62,2.62v14.5c0,1.44-1.17,2.62-2.62,2.62h-96.2c-1.44,0-2.62-1.17-2.62-2.62v-14.5c0-1.44,1.17-2.62,2.62-2.62Z"/>
                <g>
                  <circle class="cls-5" cx="75.58" cy="113.12" r="7.86" transform="translate(-51.91 160.59) rotate(-76.67)"/>
                  <g>
                    <polygon class="cls-2" points="70.3 114.16 74.36 118.28 81.53 111.09 79.81 109.47 74.43 114.99 72.11 112.41 70.3 114.16"/>
                    <polygon class="cls-8" points="70.3 113.76 74.36 117.88 81.53 110.69 79.81 109.07 74.43 114.59 72.11 112.01 70.3 113.76"/>
                  </g>
                </g>
                <g>
                  <rect class="cls-6" x="86.61" y="107.86" width="72.65" height="2.41"/>
                  <rect class="cls-6" x="86.61" y="112.27" width="72.65" height="2.41"/>
                  <rect class="cls-6" x="86.61" y="116.67" width="72.65" height="2.41"/>
                </g>
              </g>
            </g>
          </g>
          <g>
            <g>
              <path class="cls-10" d="M24.86,71.67s-19.13-3.5-22.69,17.54c21.25,1.85,22.69-17.54,22.69-17.54Z"/>
              <path class="cls-10" d="M26.86,79.51s-11.32-2.07-13.43,10.38c12.58,1.1,13.43-10.38,13.43-10.38Z"/>
              <path class="cls-10" d="M17.83,67.83s-11.32-2.07-13.43,10.38c12.58,1.1,13.43-10.38,13.43-10.38Z"/>
            </g>
            <g>
              <g>
                <path class="cls-13" d="M31.87,98.5c10.75-8.31,12.34-16.81,12.35-21.09,0-1.78-.27-2.83-.27-2.83l14.41-6.97c0,.57,0,1.13-.02,1.68-.87,23.7-26.47,29.22-26.47,29.22Z"/>
                <path class="cls-2" d="M44.22,77.41c0-1.78-.27-2.83-.27-2.83l14.41-6.97c0,.57,0,1.13-.02,1.68-2.62,2.26-8.34,6.71-14.12,8.13Z"/>
              </g>
              <g>
                <path class="cls-13" d="M0,57.26c10.75-8.31,19.38-7.7,23.52-6.63,1.73.45,2.67.97,2.67.97l10.38-12.19c-.55-.15-1.09-.28-1.63-.4C11.79,33.87,0,57.26,0,57.26Z"/>
                <path class="cls-2" d="M23.52,50.63c1.73.45,2.67.97,2.67.97l10.38-12.19c-.55-.15-1.09-.28-1.63-.4-2.85,1.97-8.59,6.38-11.42,11.62Z"/>
              </g>
              <path class="cls-8" d="M83.24,51.18c-4.51,3.22-8.5,6.04-12.03,8.5-.31.22-.62.43-.92.64-20.44,14.21-25.16,16.17-29.48,17.16l-17.95-23.23c2.04-3.92,5.13-7.99,23.9-24.07.28-.24.56-.48.85-.73,3.31-2.83,7.08-6.01,11.4-9.62,6.6-5.51,13.08-9.52,19.17-12.43.37-.17.73-.34,1.09-.51.74-.34,1.47-.66,2.19-.97.38-.16.76-.32,1.13-.47,3.53-1.44,6.89-2.51,10.04-3.31C102.37-.33,109.98-.15,113.76.2c.18.02.35.05.51.1,1.19.36,1.98,1.57,1.77,2.85-.61,3.71-2.33,11.04-7.09,19.74-1.56,2.86-3.45,5.86-5.73,8.94-.24.32-.48.65-.73.97-.48.62-.98,1.25-1.49,1.88-.25.31-.51.62-.77.92-4.37,5.21-9.93,10.53-16.99,15.57Z"/>
              <g>
                <path class="cls-5" d="M82.58,41.88c-5.4,4.18-13.17,3.18-17.35-2.22-4.18-5.4-3.18-13.17,2.22-17.35s13.17-3.18,17.35,2.22c4.18,5.4,3.18,13.17-2.22,17.35Z"/>
                <path class="cls-6" d="M80.61,39.33c-.71.55-1.48.98-2.27,1.29-1,.39-2.06.6-3.11.62-.37,0-.74,0-1.11-.04-2.01-.2-3.96-1.06-5.47-2.54-.31-.3-.59-.62-.86-.97-3.08-3.99-2.35-9.75,1.65-12.83.7-.54,1.45-.96,2.23-1.27,1.94-.77,4.07-.83,6.03-.24.35.11.7.24,1.04.39.96.42,1.85,1.01,2.64,1.77.32.31.62.64.9,1,3.08,3.99,2.35,9.75-1.64,12.83Z"/>
                <g>
                  <g>
                    <path class="cls-2" d="M83.87,26.29c-.36.28-.88.21-1.16-.15-.28-.36-.21-.88.15-1.16.36-.28.88-.21,1.16.15.28.36.21.88-.15,1.16Z"/>
                    <path class="cls-7" d="M83.96,26.21c-.36.28-.88.21-1.16-.15-.28-.36-.21-.88.15-1.16.36-.28.88-.21,1.16.15.28.36.21.88-.15,1.16Z"/>
                    <g>
                      <rect class="cls-9" x="83.39" y="24.97" width=".16" height="1.12" transform="translate(52.62 -56.13) rotate(52.29)"/>
                      <rect class="cls-9" x="83.4" y="24.98" width=".16" height="1.12" transform="translate(165.16 -5.3) rotate(142.3)"/>
                    </g>
                  </g>
                  <g>
                    <path class="cls-2" d="M79.78,22.64c-.17.42-.65.62-1.08.45s-.62-.65-.45-1.08c.17-.42.65-.62,1.08-.45.42.17.62.65.45,1.08Z"/>
                    <path class="cls-7" d="M79.82,22.53c-.17.42-.65.62-1.08.45-.42-.17-.62-.65-.45-1.08s.65-.62,1.08-.45c.42.17.62.65.45,1.08Z"/>
                    <g>
                      <rect class="cls-9" x="78.98" y="21.62" width=".16" height="1.12" transform="translate(14.33 -28.34) rotate(22.3)"/>
                      <rect class="cls-9" x="78.99" y="21.63" width=".16" height="1.12" transform="translate(129.61 -42.55) rotate(112.3)"/>
                    </g>
                  </g>
                  <g>
                    <path class="cls-2" d="M74.42,21.53c.06.45-.26.87-.71.93-.45.06-.87-.26-.93-.71-.06-.45.26-.87.71-.93.45-.06.87.26.93.71Z"/>
                    <path class="cls-7" d="M74.4,21.41c.06.45-.26.87-.71.93-.45.06-.87-.26-.93-.71-.06-.45.26-.87.71-.93.45-.06.87.26.93.71Z"/>
                    <g>
                      <rect class="cls-9" x="73.48" y="20.93" width=".16" height="1.12" transform="translate(-2.22 10.07) rotate(-7.71)"/>
                      <rect class="cls-9" x="73.5" y="20.93" width=".16" height="1.12" transform="translate(85.04 -54.3) rotate(82.32)"/>
                    </g>
                  </g>
                  <g>
                    <path class="cls-2" d="M69.21,23.25c.28.36.21.88-.15,1.16-.36.28-.88.21-1.16-.15-.28-.36-.21-.88.15-1.16.36-.28.88-.21,1.16.15Z"/>
                    <path class="cls-7" d="M69.14,23.15c.28.36.21.88-.15,1.16-.36.28-.88.21-1.16-.15-.28-.36-.21-.88.15-1.16.36-.28.88-.21,1.16.15Z"/>
                    <g>
                      <rect class="cls-9" x="68.37" y="23.08" width=".16" height="1.12" transform="translate(-.17 46.77) rotate(-37.68)"/>
                      <rect class="cls-9" x="68.39" y="23.07" width=".16" height="1.12" transform="translate(45.29 -44.99) rotate(52.29)"/>
                    </g>
                  </g>
                  <g>
                    <path class="cls-2" d="M65.57,27.34c.42.17.62.65.45,1.08-.17.42-.65.62-1.08.45-.42-.17-.62-.65-.45-1.08.17-.42.65-.62,1.08-.45Z"/>
                    <path class="cls-7" d="M65.45,27.29c.42.17.62.65.45,1.08-.17.42-.65.62-1.08.45s-.62-.65-.45-1.08.65-.62,1.08-.45Z"/>
                    <g>
                      <rect class="cls-9" x="65.02" y="27.5" width=".16" height="1.12" transform="translate(14.44 77.64) rotate(-67.7)"/>
                      <rect class="cls-9" x="65.03" y="27.48" width=".16" height="1.12" transform="translate(15.51 -22.61) rotate(22.3)"/>
                    </g>
                  </g>
                  <g>
                    <path class="cls-2" d="M64.46,32.7c.45-.06.87.26.93.71.06.45-.26.87-.71.93-.45.06-.87-.26-.93-.71s.26-.87.71-.93Z"/>
                    <path class="cls-7" d="M64.33,32.72c.45-.06.87.26.93.71.06.45-.26.87-.71.93-.45.06-.87-.26-.93-.71s.26-.87.71-.93Z"/>
                    <g>
                      <rect class="cls-9" x="64.33" y="32.99" width=".16" height="1.12" transform="translate(39.77 101.88) rotate(-97.68)"/>
                      <rect class="cls-9" x="64.33" y="32.98" width=".16" height="1.12" transform="translate(-3.92 8.95) rotate(-7.71)"/>
                    </g>
                  </g>
                  <g>
                    <path class="cls-2" d="M66.17,37.9c.36-.28.88-.21,1.16.15.28.36.21.88-.15,1.16-.36.28-.88.21-1.16-.15-.28-.36-.21-.88.15-1.16Z"/>
                    <path class="cls-7" d="M66.08,37.98c.36-.28.88-.21,1.16.15s.21.88-.15,1.16c-.36.28-.88.21-1.16-.15-.28-.36-.21-.88.15-1.16Z"/>
                    <g>
                      <rect class="cls-9" x="66.48" y="38.1" width=".16" height="1.12" transform="translate(76.65 114.98) rotate(-127.68)"/>
                      <rect class="cls-9" x="66.47" y="38.09" width=".16" height="1.12" transform="translate(-9.74 48.78) rotate(-37.71)"/>
                    </g>
                  </g>
                  <g>
                    <path class="cls-2" d="M70.26,41.55c.17-.42.65-.62,1.08-.45.42.17.62.65.45,1.08s-.65.62-1.08.45c-.42-.17-.62-.65-.45-1.08Z"/>
                    <path class="cls-7" d="M70.21,41.66c.17-.42.65-.62,1.08-.45.42.17.62.65.45,1.08-.17.42-.65.62-1.08.45-.42-.17-.62-.65-.45-1.08Z"/>
                    <g>
                      <rect class="cls-9" x="70.9" y="41.45" width=".16" height="1.12" transform="translate(120.71 107.81) rotate(-157.7)"/>
                      <rect class="cls-9" x="70.88" y="41.44" width=".16" height="1.12" transform="translate(5.17 91.72) rotate(-67.7)"/>
                    </g>
                  </g>
                  <g>
                    <path class="cls-2" d="M75.62,42.66c-.06-.45.26-.87.71-.93s.87.26.93.71-.26.87-.71.93c-.45.06-.87-.26-.93-.71Z"/>
                    <path class="cls-7" d="M75.64,42.78c-.06-.45.26-.87.71-.93.45-.06.87.26.93.71.06.45-.26.87-.71.93-.45.06-.87-.26-.93-.71Z"/>
                    <g>
                      <rect class="cls-9" x="76.4" y="42.14" width=".16" height="1.12" transform="translate(158 74.74) rotate(172.28)"/>
                      <rect class="cls-9" x="76.38" y="42.14" width=".16" height="1.12" transform="translate(44.36 124.19) rotate(-97.68)"/>
                    </g>
                  </g>
                  <g>
                    <path class="cls-2" d="M80.83,40.94c-.28-.36-.21-.88.15-1.16.36-.28.88-.21,1.16.15.28.36.21.88-.15,1.16-.36.28-.88.21-1.16-.15Z"/>
                    <path class="cls-7" d="M80.9,41.04c-.28-.36-.21-.88.15-1.16.36-.28.88-.21,1.16.15.28.36.21.88-.15,1.16-.36.28-.88.21-1.16-.15Z"/>
                    <g>
                      <rect class="cls-9" x="81.5" y="39.99" width=".16" height="1.12" transform="translate(170.94 22.78) rotate(142.32)"/>
                      <rect class="cls-9" x="81.49" y="40" width=".16" height="1.12" transform="translate(99.38 129.9) rotate(-127.71)"/>
                    </g>
                  </g>
                  <g>
                    <path class="cls-2" d="M84.47,36.85c-.42-.17-.62-.65-.45-1.08s.65-.62,1.08-.45c.42.17.62.65.45,1.08-.17.42-.65.62-1.08.45Z"/>
                    <path class="cls-7" d="M84.58,36.9c-.42-.17-.62-.65-.45-1.08.17-.42.65-.62,1.08-.45.42.17.62.65.45,1.08-.17.42-.65.62-1.08.45Z"/>
                    <g>
                      <rect class="cls-9" x="84.85" y="35.57" width=".16" height="1.12" transform="translate(150.6 -28.73) rotate(112.3)"/>
                      <rect class="cls-9" x="84.85" y="35.59" width=".16" height="1.12" transform="translate(149.78 101.83) rotate(-157.7)"/>
                    </g>
                  </g>
                  <g>
                    <path class="cls-2" d="M85.58,31.49c-.45.06-.87-.26-.93-.71-.06-.45.26-.87.71-.93.45-.06.87.26.93.71.06.45-.26.87-.71.93Z"/>
                    <path class="cls-7" d="M85.71,31.47c-.45.06-.87-.26-.93-.71s.26-.87.71-.93c.45-.06.87.26.93.71.06.45-.26.87-.71.93Z"/>
                    <g>
                      <rect class="cls-9" x="85.54" y="30.08" width=".16" height="1.12" transform="translate(104.54 -58.32) rotate(82.31)"/>
                      <rect class="cls-9" x="85.55" y="30.09" width=".16" height="1.12" transform="translate(174.59 49.54) rotate(172.29)"/>
                    </g>
                  </g>
                </g>
              </g>
              <path class="cls-5" d="M71.21,59.67c-.31.22-.62.43-.92.64-5.89-11.44-13.86-21.65-23.54-30.14.28-.24.56-.48.85-.73,9.69,8.53,17.68,18.77,23.6,30.23Z"/>
              <path class="cls-5" d="M100.23,35.61c-5.64-10.63-13.09-20.17-22.05-28.21.37-.17.73-.34,1.09-.51,8.78,7.97,16.12,17.36,21.72,27.8-.25.31-.51.62-.77.92Z"/>
              <path class="cls-5" d="M102.48,32.8c-5.46-10.08-12.55-19.16-21.01-26.89.38-.16.76-.32,1.13-.47,8.26,7.63,15.22,16.53,20.62,26.39-.24.32-.48.65-.73.97Z"/>
              <path class="cls-3" d="M83.24,51.18c-4.51,3.22-8.5,6.04-12.03,8.5-.31.22-.62.43-.92.64-20.44,14.21-25.16,16.17-29.48,17.16l-5.24-6.78c1.68-.37,3.38-.69,5.03-1.09,7.47-1.82,14.27-5.68,20.88-9.61,13-7.73,25.97-16.13,35.48-27.89,4.21-5.2,7.65-10.98,10.69-16.93,1.53-2.99,2.95-6.04,4.33-9.1.53-1.18,1.26-3.94,2.28-5.79,1.19.36,1.98,1.57,1.77,2.85-.61,3.71-2.33,11.04-7.09,19.74-1.56,2.86-3.45,5.86-5.73,8.94-.24.32-.48.65-.73.97-.48.62-.98,1.25-1.49,1.88-.25.31-.51.62-.77.92-4.37,5.21-9.93,10.53-16.99,15.57Z"/>
              <path class="cls-13" d="M108.95,22.89c-5.58-8.55-11.83-15.89-16.31-20.76C102.37-.33,109.98-.15,113.76.2c1.47.14,2.52,1.49,2.28,2.95-.61,3.71-2.33,11.04-7.09,19.74Z"/>
              <path class="cls-2" d="M108.96,22.91c-.99-1.52-2-3-3.02-4.43.59-1.08,1.17-2.18,1.73-3.28,1.53-2.99,2.95-6.04,4.33-9.1.53-1.18,1.26-3.94,2.28-5.79,1.19.36,1.98,1.57,1.77,2.85-.61,3.71-2.33,11.04-7.09,19.74Z"/>
              <g>
                <rect class="cls-5" x="15.89" y="65.07" width="32.02" height="2.2" transform="translate(64.75 .47) rotate(52.3)"/>
                <rect class="cls-5" x="15.61" y="64.14" width="25.61" height="8.5" transform="translate(65.16 4.09) rotate(52.3)"/>
                <g>
                  <path class="cls-5" d="M19.61,65h8.51c5.77,0,10.45,4.68,10.45,10.45v2.55H9.16v-2.55c0-5.77,4.68-10.45,10.45-10.45Z" transform="translate(65.85 8.9) rotate(52.3)"/>
                  <polygon class="cls-2" points="22.97 56.42 36.56 78.28 38.63 76.68 22.97 56.42"/>
                </g>
              </g>
              <g class="cls-1">
                <path class="cls-8" d="M74.11,41.2c-2.01-.2-3.96-1.06-5.47-2.54l3.01-15.07c1.94-.77,4.07-.83,6.03-.24l-3.57,17.85Z"/>
                <path class="cls-8" d="M78.34,40.62c-1,.39-2.06.6-3.11.62l3.5-17.5c.96.42,1.85,1.01,2.64,1.77l-3.02,15.12Z"/>
              </g>
            </g>
            <polygon class="cls-2" points="66.76 51.58 70.42 52.89 70.42 51.58 66.76 51.58"/>
          </g>
          <g>
            <path class="cls-10" d="M29.89,118.28c-5.06.72-5.65,1.3-6.37,6.37-.72-5.06-1.3-5.65-6.37-6.37,5.06-.72,5.65-1.3,6.37-6.37.72,5.06,1.3,5.65,6.37,6.37Z"/>
            <path class="cls-10" d="M147.29,10.9c-5.06.72-5.65,1.3-6.37,6.37-.72-5.06-1.3-5.65-6.37-6.37,5.06-.72,5.65-1.3,6.37-6.37.72,5.06,1.3,5.65,6.37,6.37Z"/>
            <path class="cls-10" d="M196.59,128.23c-2.85.41-3.18.73-3.59,3.59-.41-2.85-.73-3.18-3.59-3.59,2.85-.41,3.18-.73,3.59-3.59.41,2.85.73,3.18,3.59,3.59Z"/>
            <path class="cls-10" d="M207.92,72.99c-3.99.57-4.45,1.03-5.02,5.02-.57-3.99-1.03-4.45-5.02-5.02,3.99-.57,4.45-1.03,5.02-5.02.57,3.99,1.03,4.45,5.02,5.02Z"/>
          </g>
          <g>
            <path class="cls-6" d="M128.24,37.65c-3.07,0-5.57-2.5-5.57-5.57s2.5-5.57,5.57-5.57,5.57,2.5,5.57,5.57-2.5,5.57-5.57,5.57ZM128.24,27.35c-2.61,0-4.73,2.12-4.73,4.73s2.12,4.73,4.73,4.73,4.73-2.12,4.73-4.73-2.12-4.73-4.73-4.73Z"/>
            <path class="cls-6" d="M204.22,116.19c-2.04,0-3.7-1.66-3.7-3.7s1.66-3.7,3.7-3.7,3.7,1.66,3.7,3.7-1.66,3.7-3.7,3.7ZM204.22,109.34c-1.73,0-3.14,1.41-3.14,3.14s1.41,3.14,3.14,3.14,3.14-1.41,3.14-3.14-1.41-3.14-3.14-3.14Z"/>
            <path class="cls-6" d="M38.43,111.57c-1.02,0-1.85-.83-1.85-1.85s.83-1.85,1.85-1.85,1.85.83,1.85,1.85-.83,1.85-1.85,1.85ZM38.43,108.14c-.87,0-1.57.7-1.57,1.57s.71,1.57,1.57,1.57,1.57-.7,1.57-1.57-.7-1.57-1.57-1.57Z"/>
          </g>
          <g>
            <path class="cls-6" d="M184.99,30.51l1.53-.59-.18-2.15-1.5-.14c-.08-.31-.18-.62-.3-.91l1.03-1.27-1.23-1.78-1.37.63c-.22-.23-.46-.44-.71-.64l.26-1.62-1.95-.92v.02s-.87,1.21-.87,1.21c-.3-.09-.62-.15-.94-.2l-.59-1.53-2.15.18-.14,1.5c-.31.08-.62.18-.91.3l-1.27-1.03-1.78,1.23.63,1.37c-.23.22-.44.46-.64.71l-1.62-.26-.92,1.95,1.23.87c-.09.3-.15.62-.2.94l-1.53.59.18,2.15,1.5.14c.08.31.18.62.3.91l-1.03,1.27,1.23,1.78,1.37-.63c.22.23.46.44.71.64l-.26,1.62,1.87.88.09.04.73-1.03.14-.2s.06.02.1.03c.27.07.55.13.84.17l.59,1.53,2.15-.18.14-1.5c.31-.08.62-.18.91-.3l1.27,1.03,1.78-1.23-.63-1.37c.23-.22.44-.46.64-.71l1.62.26.92-1.95-1.23-.87c.09-.3.15-.62.2-.94ZM172.37,29.45c0-2.95,2.39-5.34,5.34-5.34s5.34,2.39,5.34,5.34-2.39,5.34-5.34,5.34-5.34-2.39-5.34-5.34Z"/>
            <path class="cls-6" d="M191.22,95.46l1-.38-.11-1.41-.98-.09c-.05-.2-.12-.4-.19-.6l.67-.83-.8-1.16-.89.41c-.15-.15-.3-.29-.46-.42l.17-1.05-1.27-.6h0s-.56.8-.56.8c-.2-.06-.4-.1-.61-.13l-.38-1-1.4.11-.09.98c-.2.05-.4.12-.59.19l-.83-.67-1.16.8.41.89c-.15.15-.29.3-.42.46l-1.05-.17-.6,1.28.8.57c-.06.2-.1.4-.13.61l-1,.38.12,1.4.98.09c.05.2.12.4.19.59l-.67.83.8,1.16.89-.41c.14.15.3.29.46.42l-.17,1.05,1.22.58.06.03.47-.67.09-.13s.04.01.06.02c.18.05.36.09.55.11l.38,1,1.41-.12.09-.98c.2-.05.4-.12.6-.19l.83.67,1.16-.8-.41-.89c.15-.15.29-.3.42-.46l1.05.17.6-1.27-.8-.57c.06-.2.1-.4.13-.61ZM182.98,94.76c0-1.92,1.56-3.48,3.48-3.48s3.48,1.56,3.48,3.48-1.56,3.48-3.48,3.48-3.48-1.56-3.48-3.48Z"/>
          </g>
          <g>
            <path class="cls-5" d="M150.92,32.67c0,.96-.78,1.75-1.75,1.75s-1.75-.78-1.75-1.75.78-1.75,1.75-1.75,1.75.78,1.75,1.75Z"/>
            <path class="cls-5" d="M129.03,3.66c0,.48-.39.87-.87.87s-.87-.39-.87-.87.39-.87.87-.87.87.39.87.87Z"/>
            <circle class="cls-5" cx="31.24" cy="127.35" r=".87"/>
            <circle class="cls-5" cx="213.41" cy="100.44" r="1.37"/>
          </g>
        </g>
      </g>
    </g>
  </g>
</svg>