<?xml version="1.0" encoding="UTF-8"?>
<svg xmlns="http://www.w3.org/2000/svg" viewBox="0 0 183.48 159.5">
  <defs>
    <style>
      .cls-1 {
        stroke-width: .39px;
      }

      .cls-1, .cls-2 {
        fill: none;
        stroke: #fff;
        stroke-miterlimit: 10;
      }

      .cls-3 {
        isolation: isolate;
      }

      .cls-4 {
        fill: #15367b;
      }

      .cls-4, .cls-5, .cls-6, .cls-7, .cls-8, .cls-9, .cls-10, .cls-11, .cls-12, .cls-13, .cls-14 {
        stroke-width: 0px;
      }

      .cls-5 {
        fill: #57bb9c;
      }

      .cls-6 {
        fill: #2b6aa6;
      }

      .cls-7, .cls-12 {
        fill: #fff;
      }

      .cls-8 {
        opacity: .8;
      }

      .cls-8, .cls-11 {
        fill: #799bc4;
        mix-blend-mode: soft-light;
      }

      .cls-9 {
        fill: #86ccb4;
      }

      .cls-10 {
        fill: #d9eee5;
      }

      .cls-2 {
        stroke-width: .29px;
      }

      .cls-11 {
        opacity: .5;
      }

      .cls-12 {
        opacity: .2;
      }

      .cls-13 {
        fill: #fd8201;
      }

      .cls-14 {
        fill: #3e75ac;
      }
    </style>
  </defs>
  <g class="cls-3">
    <g id="Capa_2" data-name="Capa 2">
      <g id="Capa_1-2" data-name="Capa 1">
        <g>
          <path class="cls-10" d="M137.73,16.06c-14.28-.16-20.86,11.6-29.68,22.42-4.07,4.99-9.67,8.72-15.85,10.55-6.7,1.98-13.81,1.74-20.8,1.86-9.24.16-18.58,1-27.27,4.13s-16.74,8.76-21.36,16.75c-4.86,8.41-5.54,18.58-4.98,28.27.47,8.24,2.04,17.03,7.85,22.89,6.82,6.89,17.71,7.86,27.26,6.18,8.63-1.52,16.84-4.81,25.44-6.3,8.26-1.43,16.72-.67,24.96.42,21.42,2.84,60.29,12.79,61.52-20.26.43-11.46-4.64-22.59-7.33-33.54-1.83-7.46-2.83-15.34-1.23-22.94,1.52-7.26,3.91-15.37-.46-22.23-2.59-4.06-7.21-6.47-11.92-7.49-2.2-.48-4.24-.71-6.15-.73Z"/>
          <g>
            <g>
              <path class="cls-4" d="M123,49.12h-42.23c-1.43,0-2.6-1.16-2.6-2.6h0c0-1.91-1.55-3.46-3.46-3.46h-29.94c-1.91,0-3.46,1.55-3.46,3.46v6.75h0v50.52c0,2.3,1.86,4.16,4.16,4.16h77.53c2.3,0,4.16-1.86,4.16-4.16v-50.52c0-2.3-1.86-4.16-4.16-4.16Z"/>
              <rect class="cls-7" x="50.34" y="54" width="67.79" height="50.75"/>
              <rect class="cls-13" x="41.31" y="65.61" width="85.84" height="58.83" rx="4.16" ry="4.16"/>
              <path class="cls-11" d="M127.16,114.98v5.3c0,2.3-1.86,4.16-4.16,4.16H45.47c-2.3,0-4.16-1.86-4.16-4.16v-7.06c17.17,1.93,33.92,4.38,51.4,4.17,11.52-.14,23.02-.94,34.45-2.41Z"/>
              <g>
                <polygon class="cls-11" points="69.13 92.69 82.82 106.59 107.04 82.31 101.24 76.85 83.08 95.48 75.24 86.79 69.13 92.69"/>
                <polygon class="cls-7" points="69.13 91.34 82.82 105.24 107.04 80.97 101.24 75.5 83.08 94.13 75.24 85.44 69.13 91.34"/>
              </g>
              <polygon class="cls-11" points="50.34 65.61 48.76 56.19 50.34 56.19 50.34 65.61"/>
              <polygon class="cls-11" points="118.13 65.61 119.71 56.19 118.13 56.19 118.13 65.61"/>
            </g>
            <g>
              <g>
                <rect class="cls-13" x="136.32" y="129.15" width="7.56" height="15.78" transform="translate(-55.86 139.21) rotate(-45)"/>
                <path class="cls-5" d="M161.24,158.01h0c-1.99,1.99-5.21,1.99-7.2,0l-18.15-18.15,7.2-7.2,18.15,18.15c1.99,1.99,1.99,5.21,0,7.2Z"/>
                <path class="cls-11" d="M137.2,128.78l2.67,2.67c-.25.24-.51.47-.78.68-1.06.86-2.22,1.62-3.46,2.15-.56.24-1.14.42-1.72.55-.4.09-.79.12-1.18.16l-.87-.87,5.35-5.35Z"/>
                <path class="cls-9" d="M106.3,103.07c-8.12,8.12-8.12,21.3,0,29.42,8.12,8.12,21.3,8.12,29.42,0,8.12-8.12,8.12-21.3,0-29.42-8.12-8.12-21.3-8.12-29.42,0ZM133.47,130.24c-6.87,6.87-18.05,6.87-24.92,0-6.87-6.87-6.87-18.05,0-24.92,6.87-6.87,18.05-6.87,24.92,0,6.87,6.87,6.87,18.05,0,24.92Z"/>
                <path class="cls-12" d="M133.47,130.24c-6.87,6.87-18.05,6.87-24.92,0-6.87-6.87-6.87-18.05,0-24.92,6.87-6.87,18.05-6.87,24.92,0,6.87,6.87,6.87,18.05,0,24.92Z"/>
              </g>
              <path class="cls-12" d="M105.11,115.21c-.34,2.3.03,4.76,1.36,6.67.26.38.64.76,1.09.73.29-.02.54-.22.73-.44.56-.63.8-1.49.85-2.32.08-1.29-.24-2.56-.41-3.83-.17-1.28-.18-2.65.47-3.77.49-.85,1.3-1.46,1.84-2.27.54-.82.7-2.05-.05-2.67-.52-.43-1.31-.39-1.91-.08-1.3.66-1.83,2.11-2.43,3.34-.72,1.47-1.29,3.02-1.53,4.65Z"/>
            </g>
          </g>
          <g>
            <path class="cls-6" d="M53.98,11.32h0l-25.99-3.29S18.69,45.62,0,56.46c0,0,19.38,6.58,39.38,4.98,0,0,20.84-11.95,25.48-39.61l-10.88-10.51Z"/>
            <g>
              <line class="cls-1" x1="29.16" y1="15.81" x2="59.93" y2="20.32"/>
              <path class="cls-1" d="M27.5,22.38s22.43,3.66,30.19,4.23"/>
              <path class="cls-1" d="M23.67,29.86s21.53,4.27,32.31,4.6"/>
              <path class="cls-1" d="M19.98,36.99s25.01,5.25,32.14,5.12"/>
              <path class="cls-1" d="M15.33,44.48s16.25,3.6,32.88,4.16"/>
              <path class="cls-1" d="M10.14,51.23s16.25,3.6,32.88,4.16"/>
            </g>
            <path class="cls-8" d="M52.42,20.37s9.07,2.77,12.11,3.22l.32-1.76s-12.21-1.63-12.44-1.46Z"/>
            <path class="cls-14" d="M64.86,21.83l-12.44-1.46s.44-4.48,1.56-9.05l10.88,10.51Z"/>
          </g>
          <g>
            <path class="cls-6" d="M160.85,13.69h0l-13.85-13.69s-22.48,17.97-38.4,15.91c0,0,8.46,12.64,20.97,20.74,0,0,17.7,2.38,32.94-11.84l-1.67-11.12Z"/>
            <g>
              <line class="cls-2" x1="144.18" y1="5.12" x2="160.3" y2="21.7"/>
              <path class="cls-2" d="M140.24,8.25s11.57,12.3,15.9,16.15"/>
              <path class="cls-2" d="M134.59,10.93s10.77,12.25,16.98,17.32"/>
              <path class="cls-2" d="M129.19,13.47s12.38,14.41,16.64,17.56"/>
              <path class="cls-2" d="M123.06,15.77s7.96,9.47,17.51,17.32"/>
              <path class="cls-2" d="M116.95,17.42s7.96,9.47,17.51,17.32"/>
            </g>
            <path class="cls-8" d="M155.84,18.33s4.1,5.74,5.69,7.38l.99-.89s-6.47-6.48-6.68-6.49Z"/>
            <path class="cls-14" d="M162.52,24.81l-6.68-6.49s2.28-2.45,5.01-4.63l1.67,11.12Z"/>
          </g>
          <g>
            <path class="cls-6" d="M174.44,60.31h0l-19.47.11s-3.19,28.6-15.9,38.41c0,0,14.92,2.96,29.5-.16,0,0,14.2-10.83,14.92-31.67l-9.04-6.68Z"/>
            <g>
              <line class="cls-2" x1="156.59" y1="66.03" x2="179.71" y2="66.36"/>
              <path class="cls-2" d="M156.01,71.03s16.88.51,22.66.18"/>
              <path class="cls-2" d="M153.91,76.92s16.28,1.05,24.25.25"/>
              <path class="cls-2" d="M151.89,82.53s18.94,1.44,24.18.65"/>
              <path class="cls-2" d="M149.19,88.5s12.32,1.07,24.63-.14"/>
              <path class="cls-2" d="M146.03,93.98s12.32,1.07,24.63-.14"/>
            </g>
            <path class="cls-8" d="M174.18,67.13s6.96,1.16,9.24,1.2l.07-1.33s-9.16-.01-9.31.13Z"/>
            <path class="cls-14" d="M183.48,66.99l-9.31.13s-.11-3.34.27-6.82l9.04,6.68Z"/>
          </g>
          <g>
            <path class="cls-13" d="M26.35,113.23c-5.06.72-5.65,1.3-6.37,6.37-.72-5.06-1.3-5.65-6.37-6.37,5.06-.72,5.65-1.3,6.37-6.37.72,5.06,1.3,5.65,6.37,6.37Z"/>
            <path class="cls-13" d="M94.45,22.25c-5.06.72-5.65,1.3-6.37,6.37-.72-5.06-1.3-5.65-6.37-6.37,5.06-.72,5.65-1.3,6.37-6.37.72,5.06,1.3,5.65,6.37,6.37Z"/>
            <path class="cls-13" d="M178.17,110.53c-2.85.41-3.18.73-3.59,3.59-.41-2.85-.73-3.18-3.59-3.59,2.85-.41,3.18-.73,3.59-3.59.41,2.85.73,3.18,3.59,3.59Z"/>
            <path class="cls-13" d="M149.2,49.87c-3.99.57-4.45,1.03-5.02,5.02-.57-3.99-1.03-4.45-5.02-5.02,3.99-.57,4.45-1.03,5.02-5.02.57,3.99,1.03,4.45,5.02,5.02Z"/>
          </g>
          <g>
            <path class="cls-6" d="M106.2,46.43c-3.07,0-5.57-2.5-5.57-5.57s2.5-5.57,5.57-5.57,5.57,2.5,5.57,5.57-2.5,5.57-5.57,5.57ZM106.2,36.13c-2.61,0-4.73,2.12-4.73,4.73s2.12,4.73,4.73,4.73,4.73-2.12,4.73-4.73-2.12-4.73-4.73-4.73Z"/>
            <path class="cls-6" d="M150.31,116.39c-2.04,0-3.7-1.66-3.7-3.7s1.66-3.7,3.7-3.7,3.7,1.66,3.7,3.7-1.66,3.7-3.7,3.7ZM150.31,109.54c-1.73,0-3.14,1.41-3.14,3.14s1.41,3.14,3.14,3.14,3.14-1.41,3.14-3.14-1.41-3.14-3.14-3.14Z"/>
            <path class="cls-6" d="M28.38,95.79c-1.56,0-2.84-1.27-2.84-2.84s1.27-2.84,2.84-2.84,2.84,1.27,2.84,2.84-1.27,2.84-2.84,2.84ZM28.38,90.54c-1.33,0-2.41,1.08-2.41,2.41s1.08,2.41,2.41,2.41,2.41-1.08,2.41-2.41-1.08-2.41-2.41-2.41Z"/>
          </g>
          <g>
            <path class="cls-6" d="M179.02,42.54l1.53-.59-.18-2.15-1.5-.14c-.08-.31-.18-.62-.3-.91l1.03-1.27-1.23-1.78-1.37.63c-.22-.23-.46-.44-.71-.64l.26-1.62-1.95-.92v.02s-.87,1.21-.87,1.21c-.3-.09-.62-.15-.94-.2l-.59-1.53-2.15.18-.14,1.5c-.31.08-.62.18-.91.3l-1.27-1.03-1.78,1.23.63,1.37c-.23.22-.44.46-.64.71l-1.62-.26-.92,1.95,1.23.87c-.09.3-.15.62-.2.94l-1.53.59.18,2.15,1.5.14c.08.31.18.62.3.91l-1.03,1.27,1.23,1.78,1.37-.63c.22.23.46.44.71.64l-.26,1.62,1.87.88.09.04.73-1.03.14-.2s.06.02.1.03c.27.07.55.13.84.17l.59,1.53,2.15-.18.14-1.5c.31-.08.62-.18.91-.3l1.27,1.03,1.78-1.23-.63-1.37c.23-.22.44-.46.64-.71l1.62.26.92-1.95-1.23-.87c.09-.3.15-.62.2-.94ZM166.39,41.48c0-2.95,2.39-5.34,5.34-5.34s5.34,2.39,5.34,5.34-2.39,5.34-5.34,5.34-5.34-2.39-5.34-5.34Z"/>
            <path class="cls-6" d="M11.44,77.54l1-.38-.11-1.41-.98-.09c-.05-.2-.12-.4-.19-.6l.67-.83-.8-1.16-.89.41c-.15-.15-.3-.29-.46-.42l.17-1.05-1.27-.6h0s-.56.8-.56.8c-.2-.06-.4-.1-.61-.13l-.38-1-1.4.11-.09.98c-.2.05-.4.12-.59.19l-.83-.67-1.16.8.41.89c-.15.15-.29.3-.42.46l-1.05-.17-.6,1.27.8.57c-.06.2-.1.4-.13.61l-1,.38.12,1.4.98.09c.05.2.12.4.19.59l-.67.83.8,1.16.89-.41c.14.15.3.29.46.42l-.17,1.05,1.22.58.06.03.47-.67.09-.13s.04.01.06.02c.18.05.36.09.55.11l.38,1,1.41-.12.09-.98c.2-.05.4-.12.6-.19l.83.67,1.16-.8-.41-.89c.15-.15.29-.3.42-.46l1.05.17.6-1.27-.8-.57c.06-.2.1-.4.13-.61ZM3.2,76.85c0-1.92,1.56-3.48,3.48-3.48s3.48,1.56,3.48,3.48-1.56,3.48-3.48,3.48-3.48-1.56-3.48-3.48Z"/>
          </g>
          <g>
            <circle class="cls-9" cx="104.14" cy="27.14" r="1.75"/>
            <path class="cls-9" d="M140.98,75.36c0,.48-.39.87-.87.87s-.87-.39-.87-.87.39-.87.87-.87.87.39.87.87Z"/>
            <path class="cls-9" d="M172.6,22.02c0,.48-.39.87-.87.87s-.87-.39-.87-.87.39-.87.87-.87.87.39.87.87Z"/>
            <path class="cls-9" d="M36.69,78.37c0,1.18-.95,2.13-2.13,2.13s-2.13-.95-2.13-2.13.95-2.13,2.13-2.13,2.13.95,2.13,2.13Z"/>
            <path class="cls-9" d="M82.59,131.13c0,.48-.39.87-.87.87s-.87-.39-.87-.87.39-.87.87-.87.87.39.87.87Z"/>
            <circle class="cls-9" cx="19.2" cy="129.76" r="1.37"/>
          </g>
        </g>
      </g>
    </g>
  </g>
</svg>