<?xml version="1.0" encoding="UTF-8"?>
<svg xmlns="http://www.w3.org/2000/svg" viewBox="0 0 170.83 174.24">
  <defs>
    <style>
      .cls-1 {
        fill: #6e94bf;
      }

      .cls-1, .cls-2, .cls-3, .cls-4, .cls-5, .cls-6, .cls-7, .cls-8 {
        stroke-width: 0px;
      }

      .cls-2 {
        opacity: .8;
      }

      .cls-2, .cls-6 {
        fill: #d9eee5;
        mix-blend-mode: soft-light;
      }

      .cls-9, .cls-8 {
        opacity: .6;
      }

      .cls-10 {
        isolation: isolate;
      }

      .cls-3 {
        fill: #15367b;
      }

      .cls-4 {
        fill: #2b6aa6;
      }

      .cls-5 {
        fill: #fff;
      }

      .cls-6 {
        opacity: .5;
      }

      .cls-11 {
        fill: none;
        stroke: #fff;
        stroke-dasharray: 0 0 0 4.77 4.77 4.77;
        stroke-miterlimit: 10;
        stroke-width: .6px;
      }

      .cls-7 {
        fill: #fd8201;
      }

      .cls-8 {
        fill: #57bb9c;
      }
    </style>
  </defs>
  <g class="cls-10">
    <g id="Capa_2" data-name="Capa 2">
      <g id="Capa_1-2" data-name="Capa 1">
        <g>
          <path class="cls-4" d="M84.18,26.54c-7.43-2.15-15.22-3.09-23.45-2.48-15.35,1.14-29.13,7.87-33.78,23.68-4.08,13.87,2.59,28.91-.09,43.11-1.75,9.24-7.34,17.43-8.91,26.7-1.35,8.01.51,16.52,5.1,23.22,4.59,6.7,11.84,11.53,19.79,13.17,16.48,3.4,32.73-6.45,49.52-7.52,8.91-.57,17.76,1.36,26.62,2.45,8.86,1.08,18.22,1.25,26.29-2.57,10.22-4.84,16.82-15.72,18.16-26.94,3.79-31.74-27.6-61.65-51.02-78.47-8.89-6.39-18.24-11.45-28.23-14.34Z"/>
          <g>
            <path class="cls-5" d="M152.86,140.48c2.5,5.39-2.4,14.04-2.4,14.04l-31.85-9.99s.11-1.16.45-2.8c.67-3.16,2.22-8.12,5.59-10.1,5.08-2.97,14.69-4.42,16.2-9.22.01-.05.03-.09.04-.14,1.69-4.81-5.49-11.56-7.99-16.96-1.68-3.62-.02-8.7,1.25-11.65.62-1.45,1.15-2.39,1.15-2.39l31.85,9.99s-.91,9.9-6.05,12.9c-5.13,3-14.88,4.45-16.24,9.36-1.69,4.8,5.49,11.56,7.99,16.96Z"/>
            <path class="cls-7" d="M141.6,137.53c-2.38-2.2-1.73-3.28-1.73-3.28l2.8-8.87c1.83-6.71,4.59-7.4,9.18-8.69,7.1-2.01,11.12-6.08,11.12-6.08l-14.85-4.66-14.85-4.66s.98,5.64,5.66,11.34c3.02,3.68,4.9,5.82,2.57,12.38l-2.76,8.88s-.08,1.25-3.29,1.7c-4.1.58-11.53,3.95-13.07,8.84l12.44,3.9,12.44,3.9c1.53-4.89-2.65-11.91-5.68-14.72Z"/>
            <path class="cls-8" d="M134.32,102.94c.46,1.32,1.34,2.53,2.58,3.18.24.13.55.23.79.08.15-.09.23-.27.27-.44.12-.49.01-1.01-.2-1.47-.32-.71-.84-1.3-1.29-1.93-.45-.63-.83-1.36-.8-2.14.02-.59.29-1.14.35-1.72.06-.58-.2-1.29-.77-1.41-.4-.08-.8.16-1.04.49-.51.71-.39,1.63-.37,2.46.02.98.16,1.97.48,2.9Z"/>
            <path class="cls-6" d="M152.86,140.48c2.5,5.39-2.4,14.04-2.4,14.04l-31.85-9.99s.11-1.16.45-2.8c.34.11.68.24,1.01.36,7.45,2.76,15.1,5.02,22.86,6.74,2.01.45,4.3.8,5.96-.41,2.34-1.7,1.94-5.32.77-7.98-1.39-3.17-3.48-5.98-4.97-9.11-1.49-3.13-2.33-6.82-1.06-10.03,1.19-3.01,4.01-5.08,6.91-6.51,2.91-1.43,6.04-2.42,8.76-4.19,2.27-1.47,4.36-4.31,3.08-6.7-.78-1.44-2.49-2.06-4.05-2.56-2.41-.77-4.82-1.54-7.23-2.32-4.2-1.34-8.4-2.69-12.59-4.03-1.46-.47-2.91-.93-4.37-1.33.62-1.45,1.15-2.39,1.15-2.39l31.85,9.99s-.91,9.9-6.05,12.9c-5.13,3-14.88,4.45-16.24,9.36-1.69,4.8,5.49,11.56,7.99,16.96Z"/>
            <rect class="cls-3" x="132.01" y="92.14" width="39.15" height="5.56" rx="1.02" ry="1.02" transform="translate(35.34 -41) rotate(17.41)"/>
            <rect class="cls-3" x="114.43" y="148.22" width="39.15" height="5.56" rx="1.02" ry="1.02" transform="translate(51.31 -33.17) rotate(17.41)"/>
          </g>
          <g>
            <polygon class="cls-1" points="50.02 10.8 0 0 41.09 17.77 50.02 10.8"/>
            <polygon class="cls-7" points="0 0 41.09 17.77 39.5 33.18 32.98 25.31 0 0"/>
            <polygon class="cls-7" points="39.5 33.18 28.75 25.47 32.98 25.31 39.5 33.18"/>
            <polygon class="cls-2" points="39.5 33.18 28.75 25.47 32.98 25.31 39.5 33.18"/>
            <polygon class="cls-1" points="0 0 32.98 25.31 22.39 38.27 0 0"/>
          </g>
          <path class="cls-11" d="M40.68,33.99c1.34,5.68,6.23,10.35,11.96,11.44,4.23.81,9.52-1.01,10.43-5.22.7-3.22-1.83-6.68-5.07-7.26-3.24-.57-6.67,1.59-7.79,4.69-1.12,3.1-.03,6.79,2.42,8.99,3.57,3.21,8.9,3.13,13.7,3.36,6.86.33,14.06,1.88,19.08,6.56,4.55,4.24,6.68,10.43,8.3,16.44,3.66,13.54,5.6,27.53,5.78,41.55"/>
          <g>
            <path class="cls-7" d="M52.23,130.59c-6.12.87-6.82,1.58-7.69,7.69-.87-6.12-1.58-6.82-7.69-7.69,6.12-.87,6.82-1.58,7.69-7.69.87,6.12,1.58,6.82,7.69,7.69Z"/>
            <path class="cls-7" d="M87.03,28.21c-5.06.72-5.65,1.3-6.37,6.37-.72-5.06-1.3-5.65-6.37-6.37,5.06-.72,5.65-1.3,6.37-6.37.72,5.06,1.3,5.65,6.37,6.37Z"/>
            <path class="cls-7" d="M167.33,134.86c-2.85.41-3.18.73-3.59,3.59-.41-2.85-.73-3.18-3.59-3.59,2.85-.41,3.18-.73,3.59-3.59.41,2.85.73,3.18,3.59,3.59Z"/>
            <path class="cls-7" d="M139.41,75.16c-3.99.57-4.45,1.03-5.02,5.02-.57-3.99-1.03-4.45-5.02-5.02,3.99-.57,4.45-1.03,5.02-5.02.57,3.99,1.03,4.45,5.02,5.02Z"/>
          </g>
          <g>
            <path class="cls-5" d="M128.45,43.84c-3.07,0-5.57-2.5-5.57-5.57s2.5-5.57,5.57-5.57,5.57,2.5,5.57,5.57-2.5,5.57-5.57,5.57ZM128.45,33.54c-2.61,0-4.73,2.12-4.73,4.73s2.12,4.73,4.73,4.73,4.73-2.12,4.73-4.73-2.12-4.73-4.73-4.73Z"/>
            <path class="cls-5" d="M53.72,150.65c-2.04,0-3.7-1.66-3.7-3.7s1.66-3.7,3.7-3.7,3.7,1.66,3.7,3.7-1.66,3.7-3.7,3.7ZM53.72,143.81c-1.73,0-3.14,1.41-3.14,3.14s1.41,3.14,3.14,3.14,3.14-1.41,3.14-3.14-1.41-3.14-3.14-3.14Z"/>
            <path class="cls-5" d="M34.67,104.14c-1.56,0-2.84-1.27-2.84-2.84s1.27-2.84,2.84-2.84,2.84,1.27,2.84,2.84-1.27,2.84-2.84,2.84ZM34.67,98.89c-1.33,0-2.41,1.08-2.41,2.41s1.08,2.41,2.41,2.41,2.41-1.08,2.41-2.41-1.08-2.41-2.41-2.41Z"/>
          </g>
          <g>
            <path class="cls-5" d="M123.29,166.49l1.53-.59-.18-2.15-1.5-.14c-.08-.31-.18-.62-.3-.91l1.03-1.27-1.23-1.78-1.37.63c-.22-.23-.46-.44-.71-.64l.26-1.62-1.95-.92v.02s-.87,1.21-.87,1.21c-.3-.09-.62-.15-.94-.2l-.59-1.53-2.15.18-.14,1.5c-.31.08-.62.18-.91.3l-1.27-1.03-1.78,1.23.63,1.37c-.23.22-.44.46-.64.71l-1.62-.26-.92,1.95,1.23.87c-.09.3-.15.62-.2.94l-1.53.59.18,2.15,1.5.14c.08.31.18.62.3.91l-1.03,1.27,1.23,1.78,1.37-.63c.22.23.46.44.71.64l-.26,1.62,1.87.88.09.04.73-1.03.14-.2s.06.02.1.03c.27.07.55.13.84.17l.59,1.53,2.15-.18.14-1.5c.31-.08.62-.18.91-.3l1.27,1.03,1.78-1.23-.63-1.37c.23-.22.44-.46.64-.71l1.62.26.92-1.95-1.23-.87c.09-.31.15-.62.2-.94ZM110.66,165.43c0-2.95,2.39-5.34,5.34-5.34s5.34,2.39,5.34,5.34-2.39,5.34-5.34,5.34-5.34-2.39-5.34-5.34Z"/>
            <path class="cls-5" d="M44.42,65.31l1-.38-.11-1.41-.98-.09c-.05-.2-.12-.4-.19-.6l.67-.83-.8-1.16-.89.41c-.15-.15-.3-.29-.46-.42l.17-1.05-1.27-.6h0s-.56.8-.56.8c-.2-.06-.4-.1-.61-.13l-.38-1-1.4.11-.09.98c-.2.05-.4.12-.59.19l-.83-.67-1.16.8.41.89c-.15.15-.29.3-.42.46l-1.05-.17-.6,1.28.8.57c-.06.2-.1.4-.13.61l-1,.38.12,1.41.98.09c.05.2.12.4.19.59l-.67.83.8,1.16.89-.41c.14.15.3.29.46.42l-.17,1.05,1.22.58.06.03.47-.67.09-.13s.04.01.06.02c.18.05.36.09.55.11l.38,1,1.41-.12.09-.98c.2-.05.4-.12.6-.19l.83.67,1.16-.8-.41-.89c.15-.15.29-.3.42-.46l1.05.17.6-1.27-.8-.57c.06-.2.1-.4.13-.61ZM36.18,64.62c0-1.92,1.56-3.48,3.48-3.48s3.48,1.56,3.48,3.48-1.56,3.48-3.48,3.48-3.48-1.56-3.48-3.48Z"/>
          </g>
          <g>
            <path class="cls-3" d="M152.67,56.54c0,.96-.78,1.75-1.75,1.75s-1.75-.78-1.75-1.75.78-1.75,1.75-1.75,1.75.78,1.75,1.75Z"/>
            <path class="cls-3" d="M98.45,39.21c0,.48-.39.87-.87.87s-.87-.39-.87-.87.39-.87.87-.87.87.39.87.87Z"/>
            <circle class="cls-3" cx="35.6" cy="86.18" r=".87"/>
            <circle class="cls-3" cx="65.99" cy="159.16" r="1.37"/>
          </g>
          <g>
            <path class="cls-5" d="M126.11,85.4c0-23.03-19.46-41.52-42.84-39.9-20.06,1.39-36.17,17.89-37.11,37.98-.65,13.78,5.69,26.11,15.77,33.77,5.75,4.37,9.27,11.04,9.27,18.26v.22h29.83v-.23c0-7.02,3.18-13.75,8.82-17.92,9.86-7.28,16.26-18.98,16.26-32.18Z"/>
            <path class="cls-1" d="M71.2,135.73h29.87v11.15c0,8.19-6.65,14.85-14.85,14.85h-.18c-8.19,0-14.85-6.65-14.85-14.85v-11.15h0Z"/>
            <path class="cls-7" d="M102.91,143.9h-33.55c-1.5,0-2.72-1.22-2.72-2.72h0c0-1.5,1.22-2.72,2.72-2.72h33.55c1.5,0,2.72,1.22,2.72,2.72h0c0,1.5-1.22,2.72-2.72,2.72Z"/>
            <path class="cls-7" d="M102.91,152.39h-33.55c-1.5,0-2.72-1.22-2.72-2.72h0c0-1.5,1.22-2.72,2.72-2.72h33.55c1.5,0,2.72,1.22,2.72,2.72h0c0,1.5-1.22,2.72-2.72,2.72Z"/>
            <g class="cls-9">
              <path class="cls-1" d="M75.31,136.22l-.96-.31c.08-.25,4.75-14.77,7.57-29.04-4.04-.3-7.35-2.72-9.38-6.9-2.96-6.08-2.6-14.55.79-18.87,1.76-2.25,4.15-3.12,6.89-2.53,1.33.29,2.39,1.12,3.17,2.47,2.59,4.5,1.71,14.55-.23,24.85,2.96-.06,5.61-.82,7.93-2.26-.18-1.59-.34-3.22-.48-4.85-.64-7.73.63-12.44,1.82-15.03,1.38-3.02,3.46-4.94,5.55-5.14,1.96-.19,3.4,1.19,3.63,3.41.48,4.59-1.16,13.64-6.34,19.39-.96,1.07-2,1.98-3.11,2.74,2.04,17.3,6.38,31.29,6.43,31.44l-.96.3c-.05-.15-4.34-13.97-6.41-31.15-2.43,1.41-5.19,2.14-8.26,2.17-2.74,14.06-7.32,28.29-7.65,29.32ZM78.62,79.4c-1.76,0-3.29.79-4.5,2.32-3.13,3.98-3.44,12.14-.68,17.81,1.35,2.77,3.93,6.06,8.66,6.34,1.95-10.18,2.86-20.06.4-24.33-.64-1.11-1.46-1.76-2.51-1.98-.47-.1-.94-.15-1.38-.15ZM98.32,79.6c-.08,0-.16,0-.25.01-3.32.31-7.51,6.44-6.46,19.08.12,1.45.26,2.89.42,4.3.88-.65,1.72-1.4,2.49-2.27,4.97-5.52,6.55-14.2,6.08-18.6-.17-1.58-1.03-2.52-2.29-2.52Z"/>
            </g>
            <path class="cls-8" d="M60.7,60.74c-2.8,3.24-4.67,7.42-4.51,11.7.03.85.23,1.82.98,2.21.47.25,1.06.2,1.57.05,1.49-.42,2.71-1.52,3.62-2.77,1.4-1.92,2.16-4.21,3.16-6.36,1-2.15,2.35-4.29,4.46-5.38,1.6-.83,3.47-.97,5.11-1.71,1.64-.73,3.12-2.49,2.56-4.2-.39-1.18-1.65-1.9-2.88-2.02-2.67-.26-4.93,1.46-7.09,2.77-2.58,1.56-5,3.42-6.98,5.71Z"/>
          </g>
        </g>
      </g>
    </g>
  </g>
</svg>