<?xml version="1.0" encoding="UTF-8"?>
<svg id="Capa_2" data-name="Capa 2" xmlns="http://www.w3.org/2000/svg" viewBox="0 0 45.69 45.57">
  <defs>
    <style>
      .cls-1 {
        fill: #6a90d3;
      }

      .cls-1, .cls-2 {
        stroke-width: 0px;
      }

      .cls-2 {
        fill: #fff;
      }
    </style>
  </defs>
  <g id="Capa_1-2" data-name="Capa 1">
    <g>
      <path class="cls-1" d="M22.84,0h0c12.62,0,22.84,10.2,22.84,22.79h0c0,12.59-10.23,22.79-22.84,22.79h0C10.23,45.57,0,35.37,0,22.79h0C0,10.2,10.23,0,22.84,0Z"/>
      <path class="cls-2" d="M23.33,20.52c-1.66,0-2.99,1.35-2.99,2.98s1.32,2.98,2.99,2.98,2.99-1.32,2.99-2.98-1.35-2.98-2.99-2.98ZM23.33,25.45c-1.07,0-1.95-.86-1.95-1.95s.86-1.92,1.95-1.92,1.92.86,1.92,1.92-.86,1.95-1.92,1.95ZM27.13,20.41c0-.39-.31-.7-.7-.7s-.69.31-.69.7.3.7.69.7.7-.31.7-.7ZM29.11,21.11c-.05-.93-.26-1.76-.93-2.44-.68-.67-1.51-.88-2.44-.93-.97-.05-3.85-.05-4.81,0-.94.05-1.75.26-2.44.93-.68.67-.88,1.5-.94,2.44-.05.96-.05,3.84,0,4.8.06.93.27,1.74.94,2.44.69.67,1.5.88,2.44.93.96.05,3.84.05,4.81,0,.93-.05,1.77-.26,2.44-.93.68-.7.88-1.5.93-2.44.05-.96.05-3.84,0-4.8ZM27.86,26.92c-.18.52-.6.91-1.09,1.12-.78.31-2.6.23-3.43.23s-2.68.08-3.43-.23c-.52-.21-.91-.6-1.12-1.12-.3-.75-.23-2.57-.23-3.42s-.08-2.65.23-3.42c.21-.49.6-.88,1.12-1.09.75-.31,2.58-.23,3.43-.23s2.65-.08,3.43.23c.49.18.88.6,1.09,1.09.31.78.23,2.59.23,3.42s.09,2.67-.23,3.42Z"/>
    </g>
  </g>
</svg>