<?xml version="1.0" encoding="UTF-8"?>
<svg id="Capa_2" data-name="Capa 2" xmlns="http://www.w3.org/2000/svg" viewBox="0 0 73.24 41.9">
  <defs>
    <style>
      .cls-1 {
        fill: #ff8400;
      }

      .cls-1, .cls-2 {
        stroke-width: 0px;
      }

      .cls-2 {
        fill: #fff;
      }
    </style>
  </defs>
  <g id="Capa_1-2" data-name="Capa 1">
    <g>
      <g>
        <path class="cls-2" d="M26.41,11.72c-3.51,0-6.09,1.29-7.72,3.86-2.29-2.57-5.43-3.86-9.43-3.86-3.21,0-5.55.98-7.04,2.93-1.48,1.95-2.23,4.47-2.23,7.54v19.7h8.25v-18.33c0-3.21,1.32-4.81,3.96-4.81,1.94,0,3.62.94,5.04,2.81v20.33h8.28v-18.56c0-3.06,1.32-4.58,3.96-4.58.9,0,1.77.23,2.59.67v-6.58c-1.67-.75-3.56-1.13-5.67-1.13Z"/>
        <path class="cls-1" d="M59.46,14.71c-1.8-2.02-4.58-3.03-8.33-3.03-3.33,0-6.11.95-8.35,2.83v-1.95h-.06V0h-8.28v41.9h8.34v-20.39c1.71-1.83,3.7-2.75,5.96-2.75,1.77,0,3.08.44,3.93,1.33.85.88,1.28,2.28,1.28,4.17v17.64h8.22v-18.17c0-3.99-.9-7-2.7-9.02Z"/>
      </g>
      <circle class="cls-2" cx="69.89" cy="38.31" r="3.35"/>
    </g>
  </g>
</svg>