<?xml version="1.0" encoding="UTF-8"?>
<svg id="Capa_2" data-name="Capa 2" xmlns="http://www.w3.org/2000/svg" viewBox="0 0 45.69 45.57">
  <defs>
    <style>
      .cls-1 {
        fill: #6a90d3;
      }

      .cls-1, .cls-2 {
        stroke-width: 0px;
      }

      .cls-2 {
        fill: #fff;
      }
    </style>
  </defs>
  <g id="Capa_1-2" data-name="Capa 1">
    <g>
      <path class="cls-1" d="M22.84,0h0c12.62,0,22.84,10.2,22.84,22.79h0c0,12.59-10.23,22.79-22.84,22.79h0C10.23,45.57,0,35.37,0,22.79h0C0,10.2,10.23,0,22.84,0Z"/>
      <g>
        <path class="cls-2" d="M23.61,21.41c.46-.2.91-.49,1.4-.58,1.64-.31,2.86.61,2.96,2.28.09,1.4.05,2.81.01,4.21,0,.19-.33.52-.54.55-1.58.24-1.74.08-1.74-1.49,0-.86,0-1.72-.03-2.58-.01-.62-.35-.99-.96-.99-.62,0-1.03.35-1.04,1.01-.03,1.06-.06,2.12-.03,3.18.02.68-.24.95-.9.89-.28-.03-.6.07-.85-.04-.23-.09-.53-.37-.53-.58-.04-1.92-.04-3.84,0-5.76,0-.19.36-.56.52-.53.6.08,1.39-.45,1.73.42Z"/>
        <path class="cls-2" d="M17.92,24.29c0-.86.02-1.72,0-2.57-.02-.52.11-.78.71-.77,1.93.03,1.6-.13,1.62,1.58.02,1.51-.03,3.03,0,4.54.02.65-.24.88-.85.83-.23-.02-.46-.01-.69,0-.57.04-.83-.17-.8-.79.04-.94.01-1.89.01-2.83Z"/>
        <path class="cls-2" d="M19.06,17.61c.68-.01,1.34.64,1.33,1.32,0,.67-.58,1.25-1.26,1.28-.71.03-1.35-.55-1.37-1.25-.03-.67.61-1.34,1.3-1.35Z"/>
      </g>
    </g>
  </g>
</svg>