<?xml version="1.0" encoding="UTF-8"?>
<svg id="Capa_2" data-name="Capa 2" xmlns="http://www.w3.org/2000/svg" viewBox="0 0 45.66 45.55">
  <defs>
    <style>
      .cls-1 {
        fill: #6a90d3;
      }

      .cls-1, .cls-2 {
        stroke-width: 0px;
      }

      .cls-2 {
        fill: #fff;
      }
    </style>
  </defs>
  <g id="Capa_1-2" data-name="Capa 1">
    <g>
      <path class="cls-1" d="M22.83,0h0c12.61,0,22.83,10.2,22.83,22.77h0c0,12.58-10.22,22.77-22.83,22.77h0C10.22,45.55,0,35.35,0,22.77h0C0,10.2,10.22,0,22.83,0Z"/>
      <path class="cls-2" d="M29.19,22.81c0-3.56-2.88-6.44-6.45-6.44s-6.45,2.88-6.45,6.44c0,3.22,2.34,5.89,5.43,6.36v-4.49h-1.64v-1.87h1.64v-1.4c0-1.61.97-2.52,2.43-2.52.72,0,1.46.13,1.46.13v1.58h-.81c-.81,0-1.07.49-1.07,1.01v1.19h1.8l-.3,1.87h-1.5v4.49c3.09-.47,5.46-3.14,5.46-6.36Z"/>
    </g>
  </g>
</svg>