<?xml version="1.0" encoding="UTF-8"?>
<svg id="Capa_2" data-name="Capa 2" xmlns="http://www.w3.org/2000/svg" viewBox="0 0 219.56 56.25">
  <defs>
    <style>
      .cls-1 {
        fill: #ff8400;
      }

      .cls-1, .cls-2 {
        stroke-width: 0px;
      }

      .cls-2 {
        fill: #16367b;
      }
    </style>
  </defs>
  <g id="Capa_1-2" data-name="Capa 1">
    <g>
      <g>
        <path class="cls-2" d="M116.44,52.38c2.46,0,4.84-.46,7.14-1.37v3.41c-2.51,1.01-5.34,1.51-8.51,1.51-3.33,0-5.8-.89-7.42-2.67-1.62-1.78-2.43-4.57-2.43-8.37v-17.26h-5.24v-3.8h5.27l1.16-7.28h2.88v7.28h13.54v3.8h-13.54v17.02c0,2.77.55,4.75,1.65,5.94,1.1,1.2,2.93,1.79,5.48,1.79Z"/>
        <path class="cls-2" d="M141.69,22.89c4.17,0,7.38,1.29,9.63,3.87,2.25,2.58,3.38,6.28,3.38,11.11v2.88h-23.52c.19,3.77,1.3,6.69,3.34,8.74,2.04,2.05,4.89,3.08,8.54,3.08s7.07-.74,10.09-2.21v3.87c-3.21,1.36-6.75,2.04-10.62,2.04-4.92,0-8.74-1.46-11.44-4.39-2.71-2.93-4.06-7.01-4.06-12.23s1.33-9.09,3.99-12.15c2.66-3.06,6.22-4.59,10.67-4.59ZM141.62,26.47c-2.84,0-5.19.96-7.07,2.88-1.88,1.92-2.98,4.58-3.3,7.98h19.37c-.23-7.24-3.23-10.86-9-10.86Z"/>
        <path class="cls-2" d="M176.1,56.25c-4.95,0-8.78-1.48-11.5-4.43-2.72-2.95-4.08-7.02-4.08-12.2s1.46-9,4.39-12.09c2.93-3.09,6.94-4.64,12.02-4.64,3.12,0,5.68.48,7.7,1.44v3.66c-2.25-1.01-4.83-1.51-7.73-1.51-3.82,0-6.82,1.19-9,3.57-2.18,2.38-3.27,5.55-3.27,9.51s1.02,7.19,3.06,9.54,4.9,3.53,8.58,3.53c3.21,0,6.03-.63,8.47-1.9v3.69c-2.37,1.22-5.25,1.83-8.65,1.83Z"/>
        <path class="cls-2" d="M207.36,22.89c4.03,0,7.07,1.08,9.12,3.25,2.05,2.17,3.08,5.38,3.08,9.65v19.55h-4.04v-19.55c0-3.07-.75-5.39-2.25-6.96-1.5-1.57-3.7-2.36-6.61-2.36-1.9,0-3.74.48-5.54,1.44-1.79.96-3.37,2.37-4.73,4.22v23.2h-4.08V10.33h4.08v17.58c3.07-3.35,6.73-5.03,10.97-5.03Z"/>
      </g>
      <g>
        <path class="cls-2" d="M35.46,15.73c-4.72,0-8.17,1.73-10.37,5.19-3.08-3.46-7.29-5.19-12.66-5.19-4.31,0-7.46,1.31-9.45,3.93-1.99,2.62-2.99,6-2.99,10.13v26.46h11.07v-24.61c0-4.31,1.77-6.46,5.32-6.46,2.61,0,4.86,1.26,6.77,3.78v27.29h11.12v-24.92c0-4.1,1.77-6.15,5.32-6.15,1.21,0,2.38.3,3.48.9v-8.84c-2.24-1-4.78-1.52-7.61-1.52Z"/>
        <path class="cls-1" d="M79.83,19.75c-2.42-2.71-6.14-4.06-11.18-4.06-4.47,0-8.21,1.27-11.21,3.8v-2.62h-.08V0h-11.12v56.25h11.2v-27.37c2.3-2.46,4.96-3.7,8-3.7,2.37,0,4.13.59,5.27,1.78,1.14,1.19,1.71,3.05,1.71,5.6v23.69h11.03v-24.39c0-5.36-1.21-9.4-3.63-12.11Z"/>
      </g>
      <circle class="cls-2" cx="93.83" cy="51.43" r="4.5"/>
    </g>
  </g>
</svg>