<?xml version="1.0" encoding="UTF-8"?>
<svg id="Capa_2" data-name="Capa 2" xmlns="http://www.w3.org/2000/svg" viewBox="0 0 38.09 38.11">
  <defs>
    <style>
      .cls-1 {
        fill: #16367b;
        stroke-width: 0px;
      }
    </style>
  </defs>
  <g id="Capa_1-2" data-name="Capa 1">
    <g>
      <path class="cls-1" d="M13.89,29.09c-2.31-.14-4.48-.74-6.51-1.87-.17-.1-.46-.06-.67,0-2.18.59-4.35,1.19-6.64,1.82.25-.92.47-1.76.7-2.61.37-1.33.76-2.66,1.1-4.01.07-.28.02-.67-.12-.93C-2.64,13.25,1.59,3.17,10.54.57c7.96-2.31,16.38,2.64,18.16,10.69.19.85.3,1.71.46,2.63.53.21,1.14.42,1.73.68,4.81,2.17,7.71,7.27,7.14,12.52-.17,1.6-.65,3.09-1.37,4.52-.13.26-.17.64-.1.93.44,1.72.94,3.43,1.41,5.15.02.07,0,.15.02.32-.85-.23-1.66-.44-2.47-.66-1.03-.28-2.05-.59-3.09-.86-.2-.05-.48-.02-.67.08-7.06,3.85-15.56.11-17.77-7.25-.02-.07-.06-.15-.1-.23ZM3.26,25.83c1.3-.36,2.49-.66,3.66-1.01.42-.13.73-.07,1.1.16,2.73,1.7,5.69,2.24,8.84,1.68,6.79-1.22,11.29-8.06,9.66-14.84-1.19-4.96-4.38-8.17-9.34-9.25-5.14-1.12-9.45.59-12.61,4.82-2.98,3.99-3.11,9.4-.48,13.64.25.41.32.75.18,1.21-.35,1.15-.66,2.32-1.01,3.6ZM16.27,29.07c.08.21.13.42.22.61,2.47,5.77,9.37,7.93,14.69,4.6.37-.23.68-.3,1.1-.16.8.26,1.62.45,2.54.69-.24-.88-.41-1.67-.67-2.43-.17-.51-.08-.88.19-1.32,3.27-5.27,1-12.25-4.72-14.61-.19-.08-.39-.12-.56-.17-1.39,7.17-5.62,11.39-12.79,12.78Z"/>
      <path class="cls-1" d="M12.28,11.16h-2.11c-.22-1.4.79-3.14,2.27-3.93,1.99-1.06,4.38-.51,5.72,1.32,1.3,1.77,1.1,4.24-.49,5.81-.48.47-.97.94-1.49,1.36-.4.32-.56.68-.51,1.18.03.33,0,.66,0,1.03h-2.24c0-.86-.02-1.69.02-2.52,0-.18.19-.37.34-.51.78-.73,1.59-1.43,2.35-2.18.68-.67.82-1.62.42-2.47-.4-.85-1.1-1.28-2.03-1.3-.9-.01-1.7.54-2.04,1.38-.1.25-.14.53-.22.84Z"/>
      <path class="cls-1" d="M13.46,22.36v-2.17h2.15v2.17h-2.15Z"/>
    </g>
  </g>
</svg>